<svg width="800" height="611" viewBox="0 0 800 611" fill="none" xmlns="http://www.w3.org/2000/svg">
<g clip-path="url(#clip0_2068_84)">
<path d="M796 0H369C366.791 0 365 1.79086 365 4V220C365 222.209 366.791 224 369 224H796C798.209 224 800 222.209 800 220V4C800 1.79086 798.209 0 796 0Z" fill="white"/>
<path d="M368.563 0.96791C367.98 0.969756 367.422 1.20213 367.009 1.61431C366.597 2.0265 366.365 2.585 366.363 3.16791V221.464C366.365 222.047 366.597 222.605 367.009 223.018C367.422 223.43 367.98 223.662 368.563 223.664H797.063C797.646 223.662 798.204 223.43 798.617 223.018C799.029 222.605 799.261 222.047 799.263 221.464V3.17291C799.261 2.59 799.029 2.0315 798.617 1.61931C798.204 1.20713 797.646 0.974756 797.063 0.97291H368.563M368.563 0.23291H797.063C797.843 0.23291 798.591 0.542659 799.142 1.09402C799.693 1.64537 800.003 2.39317 800.003 3.17291V221.464C800.003 222.244 799.693 222.991 799.142 223.543C798.591 224.094 797.843 224.404 797.063 224.404H368.563C367.783 224.404 367.036 224.094 366.484 223.543C365.933 222.991 365.623 222.244 365.623 221.464V3.17291C365.623 2.39317 365.933 1.64537 366.484 1.09402C367.036 0.542659 367.783 0.23291 368.563 0.23291Z" fill="#090814"/>
<path d="M368.563 0.23291H797.063C797.843 0.23291 798.591 0.542659 799.142 1.09402C799.693 1.64537 800.003 2.39317 800.003 3.17291V19.3429H365.623V3.17291C365.623 2.39317 365.933 1.64537 366.484 1.09402C367.036 0.542659 367.783 0.23291 368.563 0.23291Z" fill="#090814"/>
<path d="M379.771 12.4431C381.658 12.4431 383.187 10.9137 383.187 9.02708C383.187 7.14048 381.658 5.61108 379.771 5.61108C377.884 5.61108 376.355 7.14048 376.355 9.02708C376.355 10.9137 377.884 12.4431 379.771 12.4431Z" fill="white"/>
<path d="M392.737 12.4431C394.624 12.4431 396.153 10.9137 396.153 9.02708C396.153 7.14048 394.624 5.61108 392.737 5.61108C390.851 5.61108 389.321 7.14048 389.321 9.02708C389.321 10.9137 390.851 12.4431 392.737 12.4431Z" fill="white"/>
<path d="M405.704 12.4431C407.591 12.4431 409.12 10.9137 409.12 9.02708C409.12 7.14048 407.591 5.61108 405.704 5.61108C403.817 5.61108 402.288 7.14048 402.288 9.02708C402.288 10.9137 403.817 12.4431 405.704 12.4431Z" fill="white"/>
<path d="M785.073 4.46704H770.145C769.852 4.46704 769.57 4.58357 769.363 4.79099C769.156 4.9984 769.039 5.27971 769.039 5.57304C769.039 5.86637 769.156 6.14769 769.363 6.3551C769.57 6.56252 769.852 6.67905 770.145 6.67905H785.073C785.218 6.67905 785.362 6.65045 785.496 6.59486C785.631 6.53928 785.752 6.4578 785.855 6.3551C785.958 6.2524 786.039 6.13048 786.095 5.99629C786.15 5.86211 786.179 5.71829 786.179 5.57304C786.179 5.4278 786.15 5.28398 786.095 5.1498C786.039 5.01561 785.958 4.89369 785.855 4.79099C785.752 4.68828 785.631 4.60682 785.496 4.55124C785.362 4.49566 785.218 4.46704 785.073 4.46704Z" fill="white"/>
<path d="M785.073 8.61206H770.145C769.852 8.61206 769.57 8.72859 769.363 8.936C769.156 9.14342 769.039 9.42473 769.039 9.71806C769.039 10.0114 769.156 10.2927 769.363 10.5001C769.57 10.7075 769.852 10.8241 770.145 10.8241H785.073C785.218 10.8241 785.362 10.7955 785.496 10.7399C785.631 10.6843 785.752 10.6028 785.855 10.5001C785.958 10.3974 786.039 10.2755 786.095 10.1413C786.15 10.0071 786.179 9.86331 786.179 9.71806C786.179 9.57282 786.15 9.429 786.095 9.29482C786.039 9.16063 785.958 9.03871 785.855 8.936C785.752 8.8333 785.631 8.75184 785.496 8.69626C785.362 8.64068 785.218 8.61206 785.073 8.61206Z" fill="white"/>
<path d="M785.073 12.762H770.145C769.852 12.762 769.57 12.8785 769.363 13.0859C769.156 13.2933 769.039 13.5746 769.039 13.868C769.039 14.1613 769.156 14.4426 769.363 14.65C769.57 14.8574 769.852 14.974 770.145 14.974H785.073C785.218 14.974 785.362 14.9454 785.496 14.8898C785.631 14.8342 785.752 14.7527 785.855 14.65C785.958 14.5473 786.039 14.4254 786.095 14.2912C786.15 14.157 786.179 14.0132 786.179 13.868C786.179 13.7227 786.15 13.5789 786.095 13.4447C786.039 13.3105 785.958 13.1886 785.855 13.0859C785.752 12.9832 785.631 12.9017 785.496 12.8462C785.362 12.7906 785.218 12.762 785.073 12.762Z" fill="white"/>
<path d="M783.375 60.127H672.075C671.3 60.1291 670.557 60.4379 670.009 60.986C669.461 61.5341 669.152 62.2768 669.15 63.052V108.217C669.152 108.992 669.461 109.735 670.009 110.283C670.557 110.831 671.3 111.14 672.075 111.142H783.375C784.15 111.141 784.894 110.833 785.442 110.284C785.991 109.736 786.299 108.992 786.3 108.217V63.052C786.299 62.2764 785.991 61.5329 785.442 60.9845C784.894 60.4362 784.15 60.1277 783.375 60.127Z" fill="#E6E6E6"/>
<path d="M772.777 125.784H682.677C682.211 125.776 681.748 125.861 681.316 126.034C680.883 126.207 680.489 126.464 680.157 126.791C679.825 127.117 679.561 127.507 679.381 127.937C679.201 128.366 679.108 128.828 679.108 129.293C679.108 129.759 679.201 130.221 679.381 130.65C679.561 131.08 679.825 131.47 680.157 131.796C680.489 132.123 680.883 132.38 681.316 132.553C681.748 132.726 682.211 132.811 682.677 132.803H772.777C777.348 132.869 777.304 125.718 772.777 125.784Z" fill="#E6E6E6"/>
<path d="M772.777 141.872H682.677C682.211 141.864 681.748 141.949 681.316 142.122C680.883 142.295 680.489 142.552 680.157 142.879C679.825 143.205 679.561 143.595 679.381 144.025C679.201 144.454 679.108 144.916 679.108 145.382C679.108 145.848 679.201 146.309 679.381 146.738C679.561 147.168 679.825 147.558 680.157 147.884C680.489 148.211 680.883 148.468 681.316 148.641C681.748 148.814 682.211 148.899 682.677 148.891H772.777C777.348 148.957 777.304 141.807 772.777 141.872Z" fill="#E6E6E6"/>
<path d="M772.777 157.961H682.677C682.211 157.953 681.748 158.038 681.316 158.211C680.883 158.384 680.489 158.641 680.157 158.968C679.825 159.294 679.561 159.684 679.381 160.114C679.201 160.543 679.108 161.005 679.108 161.47C679.108 161.936 679.201 162.398 679.381 162.827C679.561 163.257 679.825 163.647 680.157 163.973C680.489 164.3 680.883 164.557 681.316 164.73C681.748 164.903 682.211 164.988 682.677 164.98H772.777C777.348 165.046 777.304 157.895 772.777 157.961Z" fill="#E6E6E6"/>
<path d="M637.112 60.127H525.813C525.038 60.1291 524.295 60.4379 523.747 60.986C523.199 61.5341 522.89 62.2768 522.888 63.052V108.217C522.89 108.992 523.199 109.735 523.747 110.283C524.295 110.831 525.038 111.14 525.813 111.142H637.113C637.889 111.141 638.632 110.833 639.181 110.284C639.729 109.736 640.037 108.992 640.038 108.217V63.052C640.037 62.2763 639.729 61.5326 639.18 60.9842C638.632 60.4358 637.888 60.1275 637.112 60.127Z" fill="#E6E6E6"/>
<path d="M626.514 125.784H536.414C535.948 125.776 535.485 125.861 535.053 126.034C534.62 126.207 534.226 126.464 533.894 126.791C533.562 127.117 533.298 127.507 533.118 127.937C532.937 128.366 532.845 128.828 532.845 129.293C532.845 129.759 532.937 130.221 533.118 130.65C533.298 131.08 533.562 131.47 533.894 131.796C534.226 132.123 534.62 132.38 535.053 132.553C535.485 132.726 535.948 132.811 536.414 132.803H626.514C631.085 132.869 631.041 125.718 626.514 125.784Z" fill="#E6E6E6"/>
<path d="M626.514 141.872H536.414C535.948 141.864 535.485 141.949 535.053 142.122C534.62 142.295 534.226 142.552 533.894 142.879C533.562 143.205 533.298 143.595 533.118 144.025C532.937 144.454 532.845 144.916 532.845 145.382C532.845 145.848 532.937 146.309 533.118 146.738C533.298 147.168 533.562 147.558 533.894 147.884C534.226 148.211 534.62 148.468 535.053 148.641C535.485 148.814 535.948 148.899 536.414 148.891H626.514C631.085 148.957 631.041 141.807 626.514 141.872Z" fill="#E6E6E6"/>
<path d="M626.514 157.961H536.414C535.948 157.953 535.485 158.038 535.053 158.211C534.62 158.384 534.226 158.641 533.894 158.968C533.562 159.294 533.298 159.684 533.118 160.114C532.937 160.543 532.845 161.005 532.845 161.47C532.845 161.936 532.937 162.398 533.118 162.827C533.298 163.257 533.562 163.647 533.894 163.973C534.226 164.3 534.62 164.557 535.053 164.73C535.485 164.903 535.948 164.988 536.414 164.98H626.514C631.085 165.046 631.041 157.895 626.514 157.961Z" fill="#E6E6E6"/>
<path d="M488 120.001H316C312.686 120.001 310 122.687 310 126.001V296.001C310 299.315 312.686 302.001 316 302.001H488C491.314 302.001 494 299.315 494 296.001V126.001C494 122.687 491.314 120.001 488 120.001Z" fill="white"/>
<path d="M314.174 120.771C313.2 120.772 312.266 121.159 311.577 121.848C310.888 122.537 310.5 123.472 310.499 124.446V297.168C310.5 298.142 310.888 299.076 311.577 299.765C312.266 300.454 313.2 300.842 314.174 300.843H489.836C490.811 300.842 491.745 300.454 492.434 299.765C493.123 299.076 493.51 298.142 493.511 297.168V124.446C493.51 123.472 493.123 122.537 492.434 121.848C491.745 121.159 490.811 120.772 489.836 120.771H314.174ZM314.174 120.036H489.836C491.006 120.036 492.127 120.501 492.954 121.328C493.782 122.155 494.246 123.276 494.246 124.446V297.168C494.246 298.337 493.782 299.459 492.954 300.286C492.127 301.113 491.006 301.578 489.836 301.578H314.174C313.005 301.578 311.883 301.113 311.056 300.286C310.229 299.459 309.764 298.337 309.764 297.168V124.446C309.764 123.276 310.229 122.155 311.056 121.328C311.883 120.501 313.005 120.036 314.174 120.036Z" fill="#090814"/>
<path d="M472.937 143.982H331.07C330.08 143.983 329.131 144.377 328.431 145.077C327.731 145.777 327.337 146.726 327.336 147.716V205.273C327.337 206.263 327.731 207.212 328.431 207.912C329.131 208.612 330.08 209.006 331.07 209.007H472.937C473.926 209.004 474.873 208.609 475.571 207.91C476.27 207.21 476.662 206.262 476.663 205.273V147.716C476.662 146.727 476.27 145.779 475.571 145.079C474.873 144.379 473.926 143.985 472.937 143.982Z" fill="#4671FB"/>
<path d="M459.428 227.667H344.578C343.391 227.667 342.252 228.139 341.413 228.978C340.574 229.817 340.102 230.956 340.102 232.143C340.102 233.33 340.574 234.469 341.413 235.308C342.252 236.147 343.391 236.619 344.578 236.619H459.428C465.256 236.7 465.198 227.586 459.428 227.667Z" fill="#4671FB"/>
<path d="M459.428 248.173H344.578C343.391 248.173 342.252 248.644 341.413 249.484C340.574 250.323 340.102 251.462 340.102 252.649C340.102 253.836 340.574 254.975 341.413 255.814C342.252 256.653 343.391 257.125 344.578 257.125H459.428C465.256 257.206 465.198 248.092 459.428 248.173Z" fill="#4671FB"/>
<path d="M459.428 268.687H344.577C343.391 268.687 342.253 269.158 341.414 269.997C340.576 270.836 340.104 271.973 340.104 273.16C340.104 274.346 340.576 275.483 341.414 276.322C342.253 277.161 343.391 277.632 344.577 277.632H459.428C465.257 277.712 465.198 268.606 459.428 268.687Z" fill="#4671FB"/>
<path d="M425.549 110.969C421.372 110.969 417.289 109.73 413.816 107.41C410.342 105.089 407.635 101.79 406.037 97.9313C404.438 94.0721 404.02 89.8256 404.835 85.7287C405.65 81.6318 407.661 77.8686 410.615 74.9149C413.569 71.9612 417.332 69.9497 421.429 69.1348C425.526 68.3199 429.772 68.7382 433.631 70.3367C437.491 71.9352 440.789 74.6422 443.11 78.1154C445.431 81.5885 446.669 85.6719 446.669 89.849C446.669 95.4504 444.444 100.822 440.483 104.783C436.523 108.744 431.151 110.969 425.549 110.969Z" fill="#4671FB"/>
<path d="M433.883 87.766H427.633V81.521C427.633 80.9684 427.414 80.4385 427.023 80.0477C426.632 79.657 426.102 79.4375 425.55 79.4375C424.997 79.4375 424.467 79.657 424.077 80.0477C423.686 80.4385 423.466 80.9684 423.466 81.521V87.771H417.216C416.664 87.771 416.134 87.9905 415.743 88.3812C415.352 88.772 415.133 89.3019 415.133 89.8545C415.133 90.4071 415.352 90.937 415.743 91.3278C416.134 91.7185 416.664 91.938 417.216 91.938H423.466V98.188C423.466 98.7406 423.686 99.2705 424.077 99.6613C424.467 100.052 424.997 100.271 425.55 100.271C426.102 100.271 426.632 100.052 427.023 99.6613C427.414 99.2705 427.633 98.7406 427.633 98.188V91.938H433.883C434.436 91.938 434.966 91.7185 435.357 91.3278C435.747 90.937 435.967 90.4071 435.967 89.8545C435.967 89.3019 435.747 88.772 435.357 88.3812C434.966 87.9905 434.436 87.771 433.883 87.771V87.766Z" fill="white"/>
<path d="M32.0891 304.165L0.940132 410.635C-0.0296296 413.95 -0.251809 417.439 0.289604 420.85C0.831016 424.261 2.12254 427.509 4.07105 430.361C6.01957 433.212 8.57651 435.596 11.5576 437.34C14.5386 439.084 17.8695 440.145 21.3101 440.446L55.2971 443.421L32.0891 304.165Z" fill="#4671FB"/>
<path opacity="0.1" d="M32.0891 304.165L0.940132 410.635C-0.0296296 413.95 -0.251809 417.439 0.289604 420.85C0.831016 424.261 2.12254 427.509 4.07105 430.361C6.01957 433.212 8.57651 435.596 11.5576 437.34C14.5386 439.084 17.8695 440.145 21.3101 440.446L55.2971 443.421L32.0891 304.165Z" fill="black"/>
<path d="M314.79 284.524L273.128 353.424L253.512 328.572L291.85 268.549C290.488 261.567 292.137 253.46 297.011 246.461C305.537 234.213 320.669 230.006 330.805 237.061C340.941 244.116 342.245 259.767 333.719 272.015C331.552 275.25 328.762 278.021 325.513 280.167C322.264 282.313 318.62 283.791 314.794 284.515L314.79 284.524Z" fill="#ED9DA0"/>
<path d="M55.05 451.555L50.05 468.568L50.2201 485.822C50.2201 485.822 17.3061 525.403 29.4331 611.008L183.618 609.075L165.251 471.324L55.051 451.553L55.05 451.555Z" fill="#090814"/>
<path d="M72.4053 215.757C72.4073 207.676 74.649 199.753 78.8816 192.868C83.1142 185.984 89.1719 180.407 96.3823 176.757C103.593 173.107 111.674 171.527 119.728 172.192C127.782 172.857 135.494 175.742 142.008 180.525C148.522 185.308 153.583 191.803 156.629 199.288C159.675 206.774 160.586 214.957 159.263 222.93C157.939 230.902 154.432 238.352 149.13 244.451C143.829 250.551 136.941 255.062 129.23 257.483L122.711 262.735L134.411 303.697L120.773 313.348L77.6863 277.44C77.6863 277.44 86.9953 265.583 91.9863 252.213C85.9629 248.229 81.0213 242.814 77.604 236.452C74.1866 230.09 72.4001 222.98 72.4043 215.758L72.4053 215.757Z" fill="#ED9DA0"/>
<path d="M283.178 282.339C267.743 282.104 239.204 331.644 239.204 331.644L215.761 323.351L167.545 306.283L130.596 291.075L130.758 292.192C130.611 291.841 130.458 291.492 130.28 291.131C126.396 283.131 115.112 273.712 83.0801 275.576L67.9991 287.484L65.948 289.115C59.4777 288.768 53.0062 289.776 46.948 292.075C40.087 294.833 33.226 299.975 29.98 309.597C28.298 314.558 28.298 324.816 29.308 337.848C32.957 385.034 49.961 485.348 49.961 485.348L157.329 471.131L165.249 471.316C165.249 471.316 166.191 460.504 167.031 446.344C167.552 438.039 168.023 428.603 168.292 419.522C168.477 412.863 168.527 406.405 168.41 400.722C168.393 400.368 168.393 400.016 168.376 399.662C168.056 389.287 167.014 381.77 164.776 380.946C164.776 380.946 171.721 380.761 181.743 380.391C205.959 379.483 248.167 377.451 254.187 374.169C262.696 369.544 307.309 307.476 307.309 307.476C307.309 307.476 298.633 282.587 283.179 282.337L283.178 282.339Z" fill="#4671FB"/>
<path d="M96.259 152.997C98.5976 153.001 100.93 153.233 103.224 153.689C107.369 151.677 111.916 150.629 116.524 150.625H117.731C140.998 150.625 159.859 171.679 159.859 197.65H152.059L150.799 188.067L148.953 197.65H142.458C144.477 205.34 145.49 213.259 145.471 221.21V269.075H133.685L126.861 251.341L128.568 269.075H39.624V231.489C39.624 188.141 64.98 152.997 96.259 152.997Z" fill="#090814"/>
</g>
<defs>
<clipPath id="clip0_2068_84">
<rect width="800" height="611.008" fill="white"/>
</clipPath>
</defs>
</svg>
