<svg width="769" height="800" viewBox="0 0 769 800" fill="none" xmlns="http://www.w3.org/2000/svg">
<g clip-path="url(#clip0_2068_40)">
<path d="M270.599 642.851C347.438 642.851 340.559 666.451 360.177 695.133C440.783 741.277 355.74 777.961 317.795 787.725C275.715 798.553 283.717 799.651 219.906 799.651C192.283 799.651 103.206 779.703 103.206 779.703C103.206 779.703 0.00585938 762.969 0.00585938 686.531C0.00585938 662.241 24.8699 659.947 38.8539 649.796C81.3439 618.947 179.526 642.851 270.599 642.851Z" fill="#F2F2F2"/>
<path d="M348.525 441.892C365.16 439.737 377.532 429.407 376.158 418.821C374.784 408.235 360.188 401.403 343.548 403.56C336.889 404.33 330.511 406.685 324.948 410.426L254.582 420.446L259.988 453.367L328.783 439.994C335.117 442.195 341.886 442.846 348.524 441.894L348.525 441.892Z" fill="#ED9DA0"/>
<path d="M133.405 297.433L152.705 441.114C152.705 441.114 158.014 472.014 206.34 467.466C254.666 462.918 318.173 444.174 318.173 444.174L314.04 410.623L260.064 416.47C260.064 416.47 234.864 410.357 229.864 414.48C224.864 418.603 227.164 423.428 222.213 417.426C217.262 411.424 219.75 407.697 215.419 412.946C211.088 418.195 210.208 427.32 207.619 416.019C205.03 404.718 200.199 407.019 200.199 407.019L197.452 301.763C197.452 301.763 182.952 251.557 156.47 268.343C129.988 285.129 133.405 297.433 133.405 297.433Z" fill="#E6E6E6"/>
<path d="M143.87 280.972L147.218 240.517H191.728L201.595 283.378L143.87 280.972Z" fill="#ED9DA0"/>
<path d="M237.704 582.264L228.878 649.017L224.352 683.286L216.678 741.255L208.907 800C199.707 798.521 190.621 796.987 181.651 795.4C166.238 792.677 151.15 789.803 136.386 786.779L139.258 712.234L140.377 683.285L141.707 649.016L142.486 628.725L130.351 577.267C130.351 577.267 105.314 525.449 116.934 508.676C117.533 507.849 118.262 507.124 119.092 506.53C122.328 503.841 126.208 502.038 130.351 501.299C144.806 498.016 168.899 496.699 188.416 496.393C213.466 495.993 235.368 497.06 235.368 497.06L235.498 501.299L235.741 510.499L237.704 582.264Z" fill="#090814"/>
<path d="M203.606 280.897L145.161 264.38C145.161 264.38 117.934 283.706 114.045 332.643C110.156 381.58 129.605 460.129 129.605 460.129L114.046 509.397C114.046 509.397 239.534 505.935 236.946 500.178C234.358 494.421 228.883 462.372 232.772 451.664C236.661 440.956 229.455 387.951 229.455 387.951C229.455 387.951 243.689 356.427 226.836 339.574L203.606 280.897Z" fill="#E6E6E6"/>
<path d="M188.572 633.973C192.763 650.215 204.54 661.218 214.872 658.549C225.204 655.88 230.187 640.549 225.992 624.305C224.406 617.791 221.283 611.752 216.884 606.693L198.258 538.1L166.258 547.527L188.017 614.147C186.615 620.704 186.804 627.502 188.569 633.971L188.572 633.973Z" fill="#ED9DA0"/>
<path d="M197.059 339.617C197.059 339.617 178.933 290.633 159.066 293.817C139.199 297.001 121.088 327.797 121.088 327.797L135.452 502.056L174.899 601.495L216.742 584.995L195.005 485.617L197.059 339.617Z" fill="#E6E6E6"/>
<path d="M235.271 263.05C229.82 286.79 196.089 271.756 196.089 271.756L180.689 193.309L217.91 176.794C217.91 176.794 240.726 239.31 235.271 263.05Z" fill="#090814"/>
<path d="M178.444 253.716C204.015 253.716 224.744 232.987 224.744 207.416C224.744 181.845 204.015 161.116 178.444 161.116C152.873 161.116 132.144 181.845 132.144 207.416C132.144 232.987 152.873 253.716 178.444 253.716Z" fill="#ED9DA0"/>
<path d="M212.05 160.368C212.05 160.368 233.808 167.62 234.914 196.257C235.026 200.838 234.518 205.412 233.404 209.857C232.178 215.049 242.786 262.091 229.375 234.257C226.912 215.053 221.635 196.316 213.713 178.649L213.544 178.28C213.544 178.28 203.09 197.707 182.181 197.707L189.648 190.24C189.648 190.24 156.79 203.682 144.84 203.682C144.84 203.682 135.878 209.656 144.84 218.618C153.802 227.58 171.724 248.489 161.261 264.918C150.798 281.347 159.768 285.828 159.768 285.828L143.347 276.866L135.88 272.385V278.359L97.047 273.878C97.047 273.878 86.592 272.385 108.995 246.993C108.995 246.993 114.912 237.134 112.323 228.629C110.196 222.166 109.638 215.29 110.693 208.568C115.712 180.571 135.404 124.907 212.05 160.368Z" fill="#090814"/>
<path d="M409.974 372.626C410.475 372.832 410.93 373.135 411.314 373.517C411.697 373.9 412.001 374.354 412.209 374.854C412.417 375.354 412.524 375.89 412.525 376.431C412.526 376.973 412.42 377.509 412.213 378.01L406.814 391.094L407.453 391.409L403.77 400.29L403.154 399.961L383.813 446.833C383.15 448.435 381.928 449.742 380.373 450.509C378.819 451.277 377.039 451.454 375.364 451.006L344.055 442.621C343.292 442.418 342.584 442.049 341.979 441.543C341.374 441.036 340.887 440.403 340.552 439.688C340.218 438.973 340.044 438.194 340.042 437.404C340.041 436.615 340.212 435.835 340.544 435.119L370.975 369.487C371.614 368.111 372.702 366.992 374.06 366.315C375.419 365.639 376.967 365.443 378.451 365.762L409.238 372.402C409.49 372.454 409.737 372.529 409.976 372.627L409.974 372.626Z" fill="#3F3D56"/>
<path d="M383.995 370.701L400.176 374.192C400.468 374.255 400.772 374.22 401.041 374.093C401.311 373.965 401.531 373.753 401.667 373.488C401.821 373.188 402.07 372.947 402.374 372.803C402.679 372.658 403.023 372.618 403.352 372.689L406.76 373.423C407.226 373.522 407.665 373.723 408.044 374.011C408.424 374.299 408.736 374.666 408.958 375.088C409.18 375.509 409.306 375.975 409.328 376.45C409.351 376.926 409.268 377.401 409.086 377.842L381.095 445.814C380.748 446.658 380.102 447.344 379.281 447.742C378.46 448.139 377.521 448.221 376.644 447.97L345.549 439.102C345.153 438.989 344.785 438.792 344.472 438.523C344.158 438.255 343.906 437.922 343.733 437.548C343.56 437.174 343.47 436.766 343.469 436.354C343.467 435.941 343.555 435.533 343.726 435.158L373.411 369.955C373.849 368.996 374.602 368.214 375.545 367.741C376.487 367.268 377.563 367.132 378.595 367.354L382.181 368.126C382.101 368.706 382.244 369.293 382.58 369.771C382.917 370.249 383.422 370.582 383.995 370.701Z" fill="#4671FB"/>
<path d="M745.974 0H436.29C430.399 0.005026 424.75 2.34686 420.583 6.51173C416.416 10.6766 414.071 16.3244 414.062 22.216V301.269C414.07 307.162 416.414 312.811 420.581 316.978C424.748 321.145 430.398 323.489 436.29 323.497H745.974C751.865 323.489 757.513 321.144 761.678 316.977C765.843 312.81 768.184 307.161 768.19 301.269V22.216C768.184 16.3256 765.842 10.6779 761.677 6.51277C757.512 2.34761 751.864 0.00529572 745.974 0Z" fill="#F2F2F2"/>
<path d="M745.974 0H436.29C430.399 0.005026 424.75 2.34686 420.583 6.51173C416.416 10.6766 414.071 16.3244 414.062 22.216V301.269C414.07 307.162 416.414 312.811 420.581 316.978C424.748 321.145 430.398 323.489 436.29 323.497H745.974C751.865 323.489 757.513 321.144 761.678 316.977C765.843 312.81 768.184 307.161 768.19 301.269V22.216C768.184 16.3256 765.842 10.6779 761.677 6.51277C757.512 2.34761 751.864 0.00529572 745.974 0ZM765.743 301.269C765.743 306.514 763.659 311.545 759.95 315.254C756.241 318.962 751.211 321.046 745.966 321.046H576.057C533.744 321.046 493.163 304.237 463.243 274.317C433.323 244.397 416.514 203.817 416.513 161.503V22.216C416.523 16.9748 418.61 11.951 422.317 8.24602C426.024 4.54102 431.049 2.45708 436.29 2.451H745.974C751.214 2.45656 756.238 4.54072 759.943 8.24617C763.649 11.9516 765.733 16.9757 765.738 22.216L765.743 301.269Z" fill="#090814"/>
<path d="M540.888 157.723C572.357 157.723 597.868 132.212 597.868 100.743C597.868 69.2738 572.357 43.7629 540.888 43.7629C509.419 43.7629 483.908 69.2738 483.908 100.743C483.908 132.212 509.419 157.723 540.888 157.723Z" fill="white"/>
<path d="M540.302 45.0389C536.521 45.0381 532.75 45.4184 529.046 46.1739C521.903 47.6361 515.119 50.4904 509.079 54.5739C500.1 60.6351 493.071 69.1701 488.845 79.1449C487.417 82.5233 486.328 86.0348 485.592 89.6279C484.079 97.0554 484.079 104.711 485.592 112.139C487.054 119.281 489.908 126.066 493.992 132.106C500.052 141.087 508.587 148.117 518.563 152.345C521.941 153.773 525.451 154.863 529.044 155.599C536.471 157.112 544.127 157.112 551.555 155.599C558.697 154.137 565.482 151.282 571.522 147.199C580.504 141.137 587.536 132.599 591.763 122.621C593.191 119.243 594.281 115.732 595.017 112.14C596.53 104.712 596.53 97.0564 595.017 89.6289C593.555 82.4864 590.7 75.7017 586.617 69.6619C580.554 60.6815 572.016 53.6526 562.039 49.4269C558.661 47.9993 555.15 46.9096 551.557 46.1739C547.853 45.4184 544.082 45.0382 540.302 45.0389ZM540.302 44.0449C551.544 44.0449 562.533 47.3785 571.88 53.624C581.227 59.8696 588.512 68.7466 592.814 79.1326C597.116 89.5185 598.242 100.947 596.049 111.973C593.856 122.998 588.442 133.126 580.493 141.075C572.544 149.024 562.416 154.438 551.391 156.631C540.365 158.824 528.937 157.698 518.551 153.396C508.165 149.094 499.288 141.809 493.042 132.462C486.796 123.115 483.463 112.126 483.463 100.884C483.463 85.8093 489.451 71.3521 500.111 60.6927C510.77 50.0333 525.227 44.0449 540.302 44.0449Z" fill="#090814"/>
<mask id="mask0_2068_40" style="mask-type:luminance" maskUnits="userSpaceOnUse" x="481" y="44" width="114" height="114">
<path d="M537.824 157.722C568.955 157.722 594.191 132.486 594.191 101.355C594.191 70.2244 568.955 44.988 537.824 44.988C506.693 44.988 481.457 70.2244 481.457 101.355C481.457 132.486 506.693 157.722 537.824 157.722Z" fill="white"/>
</mask>
<g mask="url(#mask0_2068_40)">
<path d="M523.835 98.392L536.06 100.43L540.135 81.074L530.287 76.999L523.835 98.392Z" fill="#090814"/>
<path d="M536.06 89.9001C536.06 89.9001 537.079 102.8 529.268 103.823C521.457 104.846 536.06 127.933 539.795 127.594C543.53 127.255 550.322 102.465 550.322 102.465C550.322 102.465 541.493 96.3522 544.548 90.9182L536.06 89.9001Z" fill="#ED9DA0"/>
<path d="M540.645 94.4861C546.459 94.4861 551.172 89.773 551.172 83.9591C551.172 78.1452 546.459 73.4321 540.645 73.4321C534.831 73.4321 530.118 78.1452 530.118 83.9591C530.118 89.773 534.831 94.4861 540.645 94.4861Z" fill="#ED9DA0"/>
<path d="M522.986 136.935C522.986 136.935 524.344 146.783 528.419 146.783C532.494 146.783 525.702 135.577 525.702 135.577L522.986 136.935Z" fill="#ED9DA0"/>
<path d="M575.989 141.18C575.989 141.18 586.176 149.669 584.818 152.388C583.46 155.107 574.63 149.332 573.951 142.54L575.989 141.18Z" fill="#ED9DA0"/>
<path d="M540.645 118.257C540.645 118.257 531.496 111.007 533.863 100.879C533.863 100.879 524.685 101.279 520.949 105.014C517.213 108.749 521.968 121.314 521.968 121.314C521.968 121.314 530.118 134.897 528.76 141.014C527.402 147.131 524.006 154.792 528.76 156.829C533.514 158.866 546.665 171.565 561.267 159.679C561.267 159.679 569.508 145.089 554.567 134.222V125.733C554.567 125.733 557.284 123.356 555.925 117.244C555.925 117.244 561.698 106.717 558.302 104.68C554.674 102.78 550.933 101.103 547.102 99.657C547.102 99.657 547.776 114.862 540.645 118.257Z" fill="#4671FB"/>
<path d="M522.986 105.013C522.986 105.013 518.572 104.334 514.157 110.787C509.742 117.24 498.197 127.426 503.63 132.52C509.063 137.614 523.665 141.009 523.665 141.009L527.065 134.895L512.465 127.764L524.688 118.596L522.986 105.013Z" fill="#4671FB"/>
<path d="M556.605 105.013C556.605 105.013 561.359 105.013 563.397 110.787C565.435 116.561 577.32 136.256 577.32 136.256L579.448 143.215L574.794 146.137L566.114 137.275L553.549 116.559L556.605 105.013Z" fill="#4671FB"/>
<path d="M533.005 73.2621C533.005 73.2621 528.058 74.9111 527.805 81.4221C527.779 82.4635 527.894 83.5036 528.148 84.5141C528.427 85.6941 528.606 88.2351 526.448 91.5541C525.002 93.7444 523.682 96.0147 522.493 98.3541L522.478 98.3851L527.911 99.0641L529.066 90.0571C529.626 85.6908 530.825 81.4308 532.627 77.4141L532.665 77.3301C532.665 77.3301 535.042 81.7471 539.796 81.7471L538.096 80.0471C538.096 80.0471 545.567 83.1031 548.284 83.1031C548.284 83.1031 550.322 84.4611 548.284 86.5031C546.246 88.5451 542.171 93.2951 544.55 97.0301C546.929 100.765 544.889 101.784 544.889 101.784L548.623 99.7461L550.323 98.7271V100.085L559.152 99.0661C559.152 99.0661 561.529 98.7271 556.435 92.9531C556.435 92.9531 555.09 90.7111 555.678 88.7781C556.161 87.3087 556.288 85.7453 556.049 84.2171C554.905 77.8511 550.431 65.1991 533.005 73.2621Z" fill="#090814"/>
</g>
<path d="M622.988 87.876H698.96C700.733 87.8976 702.426 88.6171 703.673 89.8787C704.919 91.1402 705.618 92.8421 705.618 94.6155C705.618 96.3888 704.919 98.0907 703.673 99.3523C702.426 100.614 700.733 101.333 698.96 101.355H622.988C621.215 101.333 619.522 100.614 618.275 99.3523C617.029 98.0907 616.33 96.3888 616.33 94.6155C616.33 92.8421 617.029 91.1402 618.275 89.8787C619.522 88.6171 621.215 87.8976 622.988 87.876Z" fill="#4671FB"/>
<path d="M622.988 107.482H648.72C650.493 107.504 652.186 108.223 653.433 109.485C654.679 110.746 655.378 112.448 655.378 114.221C655.378 115.995 654.679 117.697 653.433 118.958C652.186 120.22 650.493 120.939 648.72 120.961H622.988C621.215 120.939 619.522 120.22 618.275 118.958C617.029 117.697 616.33 115.995 616.33 114.221C616.33 112.448 617.029 110.746 618.275 109.485C619.522 108.223 621.215 107.504 622.988 107.482Z" fill="#D6D6E3"/>
<path d="M485.747 179.779H698.96C699.852 179.768 700.737 179.934 701.564 180.268C702.391 180.602 703.144 181.097 703.779 181.724C704.413 182.351 704.917 183.097 705.261 183.92C705.605 184.743 705.782 185.627 705.782 186.519C705.782 187.411 705.605 188.294 705.261 189.117C704.917 189.94 704.413 190.687 703.779 191.313C703.144 191.94 702.391 192.435 701.564 192.769C700.737 193.103 699.852 193.269 698.96 193.258H485.747C483.974 193.236 482.28 192.517 481.034 191.255C479.788 189.994 479.089 188.292 479.089 186.519C479.089 184.745 479.788 183.043 481.034 181.782C482.28 180.52 483.974 179.801 485.747 179.779Z" fill="#4671FB"/>
<path d="M485.747 203.061H698.96C699.852 203.05 700.737 203.216 701.564 203.55C702.391 203.884 703.144 204.379 703.779 205.006C704.413 205.633 704.917 206.379 705.261 207.202C705.605 208.025 705.782 208.909 705.782 209.801C705.782 210.693 705.605 211.576 705.261 212.399C704.917 213.222 704.413 213.968 703.779 214.595C703.144 215.222 702.391 215.717 701.564 216.051C700.737 216.385 699.852 216.551 698.96 216.54H485.747C483.974 216.518 482.28 215.799 481.034 214.537C479.788 213.276 479.089 211.574 479.089 209.801C479.089 208.027 479.788 206.325 481.034 205.064C482.28 203.802 483.974 203.083 485.747 203.061Z" fill="#4671FB"/>
<path d="M485.747 226.343H560.224C561.116 226.332 562.001 226.498 562.828 226.832C563.655 227.166 564.408 227.661 565.043 228.288C565.677 228.915 566.181 229.661 566.525 230.484C566.869 231.307 567.046 232.191 567.046 233.083C567.046 233.975 566.869 234.858 566.525 235.681C566.181 236.504 565.677 237.25 565.043 237.877C564.408 238.504 563.655 238.999 562.828 239.333C562.001 239.667 561.116 239.833 560.224 239.822H485.747C483.974 239.8 482.28 239.081 481.034 237.819C479.788 236.558 479.089 234.856 479.089 233.083C479.089 231.309 479.788 229.607 481.034 228.346C482.28 227.084 483.974 226.365 485.747 226.343Z" fill="#D6D6E3"/>
</g>
<defs>
<clipPath id="clip0_2068_40">
<rect width="768.194" height="800" fill="white"/>
</clipPath>
</defs>
</svg>
