<svg width="650" height="620" viewBox="0 0 650 620" fill="none" xmlns="http://www.w3.org/2000/svg">
<g clip-path="url(#clip0_2068_210)">
<path d="M136.443 125.938C161.296 125.938 181.443 105.791 181.443 80.938C181.443 56.0852 161.296 35.938 136.443 35.938C111.59 35.938 91.4429 56.0852 91.4429 80.938C91.4429 105.791 111.59 125.938 136.443 125.938Z" fill="#FF6584"/>
<path d="M132.877 104.5H127.121V69.059C127.121 64.2695 125.218 59.6761 121.831 56.2894C118.445 52.9026 113.851 51 109.062 51H84.1206V0H80.1206V51H46.1206V104.5H12.6206V617.5H200.621V172.244C200.621 154.277 193.483 137.046 180.779 124.342C168.074 111.637 150.843 104.5 132.877 104.5Z" fill="#9EB5FF"/>
<path d="M305.086 417H300.121V410.059C300.118 405.456 298.357 401.027 295.197 397.68C292.036 394.333 287.716 392.32 283.121 392.053V345H279.121V392H261.121V417H197.121V618H339.121V451.035C339.121 442.008 335.535 433.351 329.152 426.969C322.769 420.586 314.112 417 305.086 417Z" fill="#9EB5FF"/>
<path d="M579.121 273.108V261.059C579.119 256.456 577.357 252.027 574.197 248.68C571.037 245.332 566.716 243.319 562.121 243.053V196H558.121V243H540.121V273H455.121V618H643.121V340.744C643.12 323.426 636.487 306.766 624.584 294.187C612.681 281.607 596.412 274.065 579.121 273.108Z" fill="#9EB5FF"/>
<path d="M511.121 322H486.121V342H511.121V322Z" fill="#343434"/>
<path d="M552.121 322H527.121V342H552.121V322Z" fill="#343434"/>
<path d="M593.121 322H568.121V342H593.121V322Z" fill="#343434"/>
<path d="M511.121 373H486.121V393H511.121V373Z" fill="#343434"/>
<path d="M552.121 373H527.121V393H552.121V373Z" fill="#343434"/>
<path d="M593.121 373H568.121V393H593.121V373Z" fill="#343434"/>
<path d="M511.121 424H486.121V444H511.121V424Z" fill="#343434"/>
<path d="M552.121 424H527.121V444H552.121V424Z" fill="#343434"/>
<path d="M593.121 424H568.121V444H593.121V424Z" fill="#343434"/>
<path d="M511.121 474.999H486.121V494.999H511.121V474.999Z" fill="#343434"/>
<path d="M552.121 474.999H527.121V494.999H552.121V474.999Z" fill="#343434"/>
<path d="M593.121 474.999H568.121V494.999H593.121V474.999Z" fill="#343434"/>
<path d="M511.121 525.999H486.121V545.999H511.121V525.999Z" fill="#343434"/>
<path d="M552.121 525.999H527.121V545.999H552.121V525.999Z" fill="#343434"/>
<path d="M593.121 525.999H568.121V545.999H593.121V525.999Z" fill="#343434"/>
<path d="M511.121 576.999H486.121V596.999H511.121V576.999Z" fill="#343434"/>
<path d="M552.121 576.999H527.121V596.999H552.121V576.999Z" fill="#343434"/>
<path d="M593.121 576.999H568.121V596.999H593.121V576.999Z" fill="#343434"/>
<path d="M147.121 145H66.1206V151H147.121V145Z" fill="#343434"/>
<path d="M147.121 182H66.1206V188H147.121V182Z" fill="#343434"/>
<path d="M147.121 219H66.1206V225H147.121V219Z" fill="#343434"/>
<path d="M147.121 256H66.1206V262H147.121V256Z" fill="#343434"/>
<path d="M147.121 293H66.1206V299H147.121V293Z" fill="#343434"/>
<path d="M147.121 330H66.1206V336H147.121V330Z" fill="#343434"/>
<path d="M147.121 367H66.1206V373H147.121V367Z" fill="#343434"/>
<path d="M147.121 404H66.1206V410H147.121V404Z" fill="#343434"/>
<path d="M147.121 440.999H66.1206V446.999H147.121V440.999Z" fill="#343434"/>
<path d="M147.121 477.999H66.1206V483.999H147.121V477.999Z" fill="#343434"/>
<path d="M147.121 514.999H66.1206V520.999H147.121V514.999Z" fill="#343434"/>
<path d="M147.121 551.999H66.1206V557.999H147.121V551.999Z" fill="#343434"/>
<path d="M239.621 443.999H214.621V463.999H239.621V443.999Z" fill="#343434"/>
<path d="M280.621 443.999H255.621V463.999H280.621V443.999Z" fill="#343434"/>
<path d="M321.621 443.999H296.621V463.999H321.621V443.999Z" fill="#343434"/>
<path d="M240.121 494.999H215.121V514.999H240.121V494.999Z" fill="#343434"/>
<path d="M281.121 494.999H256.121V514.999H281.121V494.999Z" fill="#343434"/>
<path d="M322.121 494.999H297.121V514.999H322.121V494.999Z" fill="#343434"/>
<path d="M240.621 545.999H215.621V565.999H240.621V545.999Z" fill="#343434"/>
<path d="M281.621 545.999H256.621V565.999H281.621V545.999Z" fill="#343434"/>
<path d="M322.621 545.999H297.621V565.999H322.621V545.999Z" fill="#343434"/>
<path d="M99.1206 62H74.1206V82H99.1206V62Z" fill="#343434"/>
<path d="M19.487 568.199C21.474 552.22 31.377 536.477 46.616 531.277C40.6049 547.723 40.6049 565.766 46.616 582.212C48.958 588.546 52.222 595.347 50.016 601.731C48.646 605.703 45.293 608.742 41.545 610.642C37.797 612.542 33.638 613.448 29.531 614.335L28.723 615.004C22.209 600.281 17.5 584.178 19.487 568.199Z" fill="#D6D6E3"/>
<path d="M46.7667 531.579C37.8922 541.522 32.3764 554.009 31.0027 567.266C30.6565 570.115 30.7614 573 31.3137 575.816C31.9416 578.542 33.2883 581.05 35.2137 583.08C36.9697 585.009 38.9887 586.78 40.2447 589.101C40.8703 590.299 41.2354 591.616 41.3163 592.965C41.3971 594.315 41.1918 595.666 40.7137 596.93C39.6047 600.111 37.4137 602.704 35.1927 605.165C32.7217 607.898 30.1107 610.697 29.0607 614.32C28.9337 614.759 28.2607 614.536 28.3867 614.098C30.2147 607.798 36.3337 604.214 39.2517 598.537C40.6137 595.888 41.1847 592.812 39.9087 590.016C38.7927 587.571 36.7087 585.744 34.9177 583.806C33.0096 581.854 31.6088 579.464 30.8377 576.845C30.1441 574.066 29.9284 571.19 30.1997 568.339C30.7077 561.909 32.2239 555.598 34.6927 549.639C37.4704 542.823 41.3936 536.532 46.2927 531.039C46.5927 530.699 47.0637 531.234 46.7627 531.571L46.7667 531.579Z" fill="#343434"/>
<path d="M31.1936 562.972C29.0007 562.44 27.0684 561.145 25.7418 559.319C24.4152 557.494 23.7807 555.256 23.9517 553.006C23.9581 552.913 24.0006 552.827 24.0701 552.765C24.1396 552.703 24.2305 552.671 24.3233 552.676C24.4161 552.68 24.5035 552.721 24.5666 552.79C24.6296 552.858 24.6634 552.948 24.6606 553.041C24.4976 555.136 25.0888 557.22 26.3275 558.917C27.5662 560.615 29.3708 561.813 31.4156 562.297C31.8596 562.403 31.6347 563.076 31.1927 562.971L31.1936 562.972Z" fill="#343434"/>
<path d="M34.1898 582.219C38.1504 579.854 41.0741 576.083 42.3778 571.658C42.5068 571.22 43.1778 571.443 43.0518 571.881C41.6864 576.483 38.6358 580.401 34.5088 582.853C34.1158 583.087 33.7988 582.452 34.1898 582.219Z" fill="#343434"/>
<path d="M38.1309 543.5C38.936 543.882 39.8234 544.059 40.7136 544.013C41.6037 543.968 42.4687 543.703 43.2309 543.241C43.6209 543.003 43.9379 543.641 43.5499 543.875C42.705 544.382 41.7488 544.675 40.7647 544.727C39.7807 544.779 38.7988 544.59 37.9049 544.175C37.8174 544.143 37.7454 544.079 37.7034 543.996C37.6614 543.913 37.6527 543.816 37.6789 543.727C37.7088 543.638 37.7726 543.564 37.8565 543.522C37.9404 543.48 38.0375 543.472 38.1269 543.501L38.1309 543.5Z" fill="#343434"/>
<path d="M93.0659 559.817C92.8259 559.973 92.5869 560.128 92.3469 560.29C89.1375 562.401 86.1048 564.768 83.2789 567.37C83.0569 567.57 82.8359 567.77 82.6199 567.97C75.8786 574.31 70.3729 581.847 66.3829 590.197C64.7982 593.521 63.4687 596.961 62.4059 600.487C60.9379 605.357 59.7349 610.753 56.8299 614.736C56.5317 615.156 56.2077 615.556 55.8599 615.936H29.6079C29.5479 615.906 29.4879 615.882 29.4279 615.852L28.3799 615.9C28.4219 615.714 28.4699 615.523 28.5119 615.337C28.5359 615.229 28.5659 615.121 28.5899 615.014C28.6079 614.942 28.6259 614.87 28.6379 614.804C28.6439 614.78 28.6499 614.756 28.6559 614.738C28.6679 614.672 28.6859 614.612 28.6979 614.552C28.9645 613.48 29.2359 612.408 29.5119 611.336C29.5119 611.33 29.5119 611.33 29.5179 611.324C31.5694 603.134 34.5851 595.217 38.5019 587.738C38.6219 587.516 38.7419 587.289 38.8729 587.067C40.6866 583.756 42.7679 580.6 45.0959 577.628C46.3759 576.005 47.7374 574.448 49.1749 572.962C52.8964 569.131 57.1973 565.909 61.9199 563.415C71.3349 558.444 82.2359 556.539 92.2989 559.576C92.5569 559.655 92.8089 559.733 93.0659 559.817Z" fill="#D6D6E3"/>
<path d="M93.007 560.15C79.9349 562.745 68.0128 569.393 58.934 579.15C56.9423 581.216 55.2887 583.583 54.0341 586.164C52.8935 588.717 52.4574 591.529 52.7711 594.308C53.0111 596.908 53.5581 599.534 53.1631 602.144C52.9411 603.477 52.4398 604.748 51.692 605.874C50.9442 607 49.9668 607.955 48.824 608.677C46.024 610.549 42.717 611.303 39.458 611.928C35.839 612.622 32.07 613.286 29.05 615.546C28.684 615.82 28.2811 615.236 28.6501 614.963C33.9041 611.031 40.95 611.856 46.694 609.08C49.376 607.78 51.684 605.673 52.349 602.672C52.93 600.047 52.369 597.336 52.102 594.709C51.7565 592.002 52.0788 589.252 53.041 586.699C54.1602 584.063 55.7198 581.636 57.653 579.523C61.9285 574.699 66.9356 570.577 72.4911 567.308C78.8135 563.54 85.7339 560.881 92.953 559.446C93.4 559.357 93.453 560.066 93.007 560.154V560.15Z" fill="#343434"/>
<path d="M61.673 575.839C60.2426 574.094 59.4791 571.897 59.5191 569.64C59.559 567.384 60.3997 565.216 61.891 563.522C62.191 563.18 62.739 563.635 62.436 563.977C61.0446 565.552 60.2619 567.572 60.2291 569.673C60.1962 571.774 60.9155 573.818 62.257 575.435C62.548 575.787 61.963 576.189 61.674 575.835L61.673 575.839Z" fill="#343434"/>
<path d="M52.4756 593.008C57.0628 593.506 61.6692 592.256 65.3756 589.508C65.7426 589.235 66.1466 589.819 65.7756 590.091C61.9146 592.943 57.12 594.235 52.3486 593.708C51.8936 593.657 52.0226 592.959 52.4756 593.008Z" fill="#343434"/>
<path d="M78.9376 564.469C79.3503 565.26 79.9529 565.936 80.6914 566.436C81.4299 566.936 82.2811 567.245 83.1685 567.335C83.6235 567.38 83.4936 568.078 83.0416 568.035C82.0617 567.931 81.1222 567.589 80.3052 567.038C79.4882 566.487 78.8185 565.744 78.3545 564.875C78.304 564.797 78.2851 564.702 78.3018 564.61C78.3186 564.518 78.3696 564.436 78.4445 564.381C78.5218 564.328 78.6168 564.308 78.7091 564.324C78.8013 564.341 78.8834 564.393 78.9376 564.469Z" fill="#343434"/>
<path d="M496.487 568.199C498.474 552.22 508.377 536.477 523.616 531.277C517.605 547.723 517.605 565.766 523.616 582.212C525.958 588.546 529.222 595.347 527.016 601.731C525.646 605.703 522.293 608.742 518.545 610.642C514.797 612.542 510.638 613.448 506.531 614.335L505.723 615.004C499.209 600.281 494.5 584.178 496.487 568.199Z" fill="#D6D6E3"/>
<path d="M523.767 531.579C514.892 541.522 509.376 554.009 508.003 567.266C507.656 570.115 507.761 573 508.314 575.816C508.942 578.542 510.288 581.05 512.214 583.08C513.97 585.009 515.989 586.78 517.245 589.101C517.87 590.299 518.235 591.616 518.316 592.965C518.397 594.315 518.192 595.666 517.714 596.93C516.605 600.111 514.419 602.704 512.193 605.165C509.722 607.898 507.111 610.697 506.061 614.32C505.934 614.759 505.261 614.536 505.387 614.098C507.215 607.798 513.334 604.214 516.252 598.537C517.614 595.888 518.185 592.812 516.909 590.016C515.793 587.571 513.709 585.744 511.918 583.806C510.01 581.854 508.609 579.464 507.838 576.845C507.144 574.066 506.928 571.19 507.2 568.339C507.708 561.909 509.224 555.598 511.693 549.639C514.47 542.823 518.394 536.532 523.293 531.039C523.601 530.708 524.068 531.241 523.767 531.579Z" fill="#343434"/>
<path d="M508.194 562.972C506.001 562.439 504.068 561.145 502.742 559.319C501.415 557.494 500.781 555.256 500.952 553.006C500.988 552.551 501.697 552.586 501.661 553.041C501.498 555.136 502.089 557.22 503.328 558.917C504.566 560.615 506.371 561.813 508.416 562.297C508.86 562.403 508.635 563.077 508.194 562.972Z" fill="#343434"/>
<path d="M511.19 582.219C515.15 579.854 518.074 576.083 519.378 571.658C519.507 571.22 520.178 571.443 520.052 571.881C518.686 576.483 515.636 580.401 511.509 582.853C511.116 583.087 510.799 582.452 511.19 582.219Z" fill="#343434"/>
<path d="M515.131 543.5C515.936 543.882 516.823 544.059 517.714 544.013C518.604 543.968 519.469 543.703 520.231 543.241C520.621 543.003 520.938 543.641 520.55 543.875C519.705 544.382 518.749 544.675 517.765 544.727C516.781 544.779 515.799 544.59 514.905 544.175C514.817 544.143 514.745 544.079 514.703 543.996C514.661 543.913 514.653 543.816 514.679 543.727C514.709 543.638 514.773 543.564 514.857 543.522C514.94 543.48 515.038 543.472 515.127 543.501L515.131 543.5Z" fill="#343434"/>
<path d="M570.066 559.817C569.826 559.973 569.587 560.128 569.347 560.29C566.137 562.401 563.105 564.768 560.279 567.37C560.057 567.57 559.836 567.77 559.62 567.97C552.879 574.31 547.373 581.847 543.383 590.197C541.798 593.521 540.469 596.961 539.406 600.487C537.938 605.356 536.735 610.753 533.83 614.736C533.532 615.156 533.208 615.556 532.86 615.936H506.608C506.548 615.906 506.488 615.882 506.428 615.852L505.38 615.9C505.422 615.714 505.47 615.523 505.512 615.337C505.536 615.229 505.566 615.121 505.59 615.014C505.608 614.942 505.626 614.87 505.638 614.804C505.644 614.78 505.65 614.756 505.656 614.738C505.668 614.672 505.686 614.612 505.698 614.552C505.965 613.48 506.236 612.408 506.512 611.336C506.512 611.33 506.512 611.33 506.518 611.324C508.569 603.134 511.585 595.217 515.502 587.738C515.622 587.516 515.741 587.289 515.873 587.067C517.687 583.756 519.768 580.6 522.096 577.628C523.376 576.005 524.737 574.447 526.175 572.962C529.896 569.131 534.197 565.909 538.92 563.415C548.336 558.444 559.236 556.539 569.299 559.576C569.557 559.655 569.809 559.733 570.066 559.817Z" fill="#D6D6E3"/>
<path d="M570.007 560.15C556.934 562.745 545.012 569.393 535.934 579.15C533.942 581.216 532.288 583.583 531.034 586.164C529.893 588.717 529.457 591.529 529.771 594.308C530.011 596.908 530.558 599.534 530.163 602.144C529.941 603.477 529.439 604.748 528.691 605.874C527.944 607 526.966 607.955 525.824 608.677C523.024 610.549 519.717 611.303 516.458 611.928C512.839 612.622 509.07 613.286 506.05 615.546C505.684 615.82 505.281 615.236 505.65 614.963C510.904 611.031 517.95 611.856 523.694 609.08C526.376 607.78 528.684 605.673 529.349 602.672C529.93 600.047 529.369 597.336 529.102 594.709C528.756 592.002 529.078 589.252 530.041 586.699C531.16 584.063 532.719 581.636 534.653 579.523C538.928 574.699 543.935 570.577 549.491 567.308C555.813 563.54 562.733 560.881 569.953 559.446C570.399 559.354 570.451 560.062 570.007 560.15Z" fill="#343434"/>
<path d="M538.673 575.839C537.243 574.094 536.479 571.897 536.519 569.64C536.559 567.384 537.4 565.216 538.891 563.522C539.191 563.18 539.739 563.635 539.436 563.977C538.045 565.552 537.262 567.572 537.229 569.673C537.196 571.774 537.916 573.818 539.257 575.435C539.547 575.787 538.962 576.189 538.673 575.839Z" fill="#343434"/>
<path d="M529.476 593.008C534.063 593.506 538.669 592.256 542.376 589.508C542.743 589.235 543.147 589.819 542.776 590.091C538.915 592.943 534.12 594.235 529.349 593.708C528.895 593.659 529.024 592.961 529.476 593.008Z" fill="#343434"/>
<path d="M555.938 564.469C556.351 565.26 556.953 565.936 557.692 566.436C558.43 566.936 559.282 567.245 560.169 567.335C560.624 567.38 560.494 568.078 560.042 568.035C559.062 567.931 558.123 567.589 557.306 567.038C556.489 566.487 555.819 565.744 555.355 564.875C555.304 564.797 555.286 564.702 555.302 564.61C555.319 564.518 555.37 564.436 555.445 564.381C555.522 564.328 555.617 564.308 555.71 564.324C555.802 564.341 555.884 564.393 555.938 564.469Z" fill="#343434"/>
<path d="M207.315 75.0079C205.226 73.5329 202.941 71.9959 200.384 72.0569C194.197 72.2059 190.862 81.2749 184.684 80.9569C180.743 80.7569 178.126 76.7499 174.456 75.2979C169.678 73.4079 163.598 77.1039 163.077 82.2159L163.691 81.6539C182.263 86.1815 201.536 87.0719 220.447 84.2759L207.315 75.0079Z" fill="#8793D9"/>
<path d="M492.315 34.0079C490.226 32.5329 487.941 30.9959 485.384 31.0569C479.197 31.2059 475.862 40.2749 469.684 39.9569C465.743 39.7569 463.126 35.7499 459.456 34.2979C454.678 32.4079 448.598 36.1039 448.077 41.2159L448.691 40.6539C467.263 45.1815 486.536 46.0719 505.447 43.2759L492.315 34.0079Z" fill="#8793D9"/>
<path d="M333.315 201.008C331.226 199.533 328.941 197.996 326.384 198.057C320.197 198.206 316.862 207.275 310.684 206.957C306.743 206.757 304.126 202.75 300.456 201.298C295.678 199.408 289.598 203.104 289.077 208.216L289.691 207.654C308.263 212.182 327.536 213.072 346.447 210.276L333.315 201.008Z" fill="#8793D9"/>
<path d="M437.682 473.546C437.735 473.512 437.779 473.466 437.81 473.412C437.842 473.357 437.859 473.296 437.862 473.233C437.81 473.279 437.762 473.327 437.706 473.372C437.698 473.431 437.696 473.486 437.682 473.546Z" fill="#2F2E41"/>
<path d="M648.485 618.616H1.19083C1.03158 618.621 0.873051 618.593 0.724579 618.535C0.576107 618.478 0.440715 618.391 0.326447 618.28C0.212178 618.169 0.121356 618.036 0.0593262 617.889C-0.00270329 617.742 -0.034668 617.585 -0.034668 617.425C-0.034668 617.266 -0.00270329 617.108 0.0593262 616.962C0.121356 616.815 0.212178 616.682 0.326447 616.571C0.440715 616.46 0.576107 616.373 0.724579 616.316C0.873051 616.258 1.03158 616.23 1.19083 616.235H648.485C648.795 616.244 649.089 616.373 649.305 616.596C649.521 616.818 649.641 617.116 649.641 617.425C649.641 617.735 649.521 618.033 649.305 618.255C649.089 618.478 648.795 618.607 648.485 618.616Z" fill="#CACACA"/>
<path d="M347.486 338.131L343.027 340.415C342.985 340.433 342.938 340.435 342.895 340.42C342.852 340.404 342.816 340.373 342.796 340.333C342.775 340.292 342.77 340.245 342.783 340.201C342.796 340.158 342.824 340.12 342.864 340.097L347.323 337.813C347.364 337.795 347.412 337.793 347.455 337.808C347.498 337.824 347.533 337.855 347.554 337.895C347.575 337.936 347.579 337.983 347.567 338.027C347.554 338.07 347.525 338.108 347.486 338.131Z" fill="#343434"/>
<path d="M348.104 337.756C348.183 337.756 348.247 337.692 348.247 337.613C348.247 337.534 348.183 337.47 348.104 337.47C348.025 337.47 347.961 337.534 347.961 337.613C347.961 337.692 348.025 337.756 348.104 337.756Z" fill="#343434"/>
<path d="M369.789 447.384L382.125 436.498L375.772 429.293L363.435 440.177C362.098 440.106 360.762 440.302 359.502 440.753C358.242 441.204 357.085 441.901 356.098 442.804C352.25 446.195 351.413 451.528 354.216 454.71C357.019 457.892 362.416 457.716 366.261 454.333C367.28 453.466 368.117 452.404 368.721 451.211C369.326 450.017 369.687 448.715 369.783 447.38L369.789 447.384Z" fill="#FFB9B9"/>
<path d="M415.375 376.264L362.087 435.564L374.492 446.714L430.992 391.207" fill="#4671FB"/>
<path d="M471.112 574.275L462.708 580.471L468.904 588.875L477.308 582.679L471.112 574.275Z" fill="#FFB9B9"/>
<path d="M481.503 591.394L463.645 604.562C462.107 605.693 460.336 606.465 458.461 606.822L453.999 607.669C453.507 607.762 452.999 607.703 452.543 607.499C452.086 607.296 451.702 606.958 451.442 606.531C451.182 606.103 451.059 605.607 451.089 605.108C451.119 604.608 451.301 604.13 451.61 603.737L457.017 596.844L464.133 582.169L464.175 582.205C465.203 583.145 466.767 584.558 466.881 584.631C469.081 585.119 470.767 584.844 471.899 583.821C473.873 582.034 473.473 578.521 473.473 578.491V578.465L473.494 578.45C473.717 578.299 473.971 578.201 474.238 578.164C474.505 578.127 474.776 578.152 475.032 578.237C475.806 578.648 476.393 579.34 476.674 580.17C477.674 580.31 480.285 583.302 480.498 583.541C481.097 583.594 481.679 583.769 482.207 584.057C482.736 584.345 483.199 584.739 483.568 585.214C483.807 585.632 483.954 586.095 484.001 586.574C484.048 587.053 483.993 587.537 483.84 587.993C483.472 589.36 482.647 590.56 481.502 591.393L481.503 591.394Z" fill="#090814"/>
<path d="M474.508 577.807C474.728 577.807 474.946 577.846 475.153 577.922C475.974 578.327 476.609 579.03 476.929 579.888C477.717 580.288 478.427 580.828 479.023 581.481C479.533 581.981 480.09 582.569 480.679 583.233C481.304 583.3 481.908 583.494 482.455 583.804C483.002 584.113 483.48 584.532 483.859 585.033C484.124 585.49 484.289 585.998 484.343 586.524C484.397 587.049 484.338 587.581 484.172 588.082C483.87 589.216 483.264 590.247 482.42 591.063H482.53L463.853 604.834C462.273 605.995 460.453 606.787 458.527 607.153L454.065 608C453.894 608.033 453.721 608.049 453.548 608.049C453.024 608.048 452.51 607.9 452.066 607.621C451.622 607.343 451.265 606.945 451.035 606.473C450.806 606.002 450.714 605.475 450.769 604.954C450.824 604.432 451.025 603.937 451.348 603.524L456.733 596.664L464.033 581.621L464.416 581.955C465.484 582.931 466.762 584.085 467.042 584.316C467.635 584.449 468.241 584.519 468.849 584.526C469.881 584.577 470.893 584.235 471.683 583.569C472.485 582.763 472.981 581.702 473.083 580.569C473.18 579.897 473.201 579.217 473.146 578.541C473.146 578.526 473.146 578.511 473.146 578.496V578.296L473.317 578.167L473.333 578.157C473.688 577.934 474.097 577.812 474.516 577.803L474.508 577.807ZM480.491 591.722H480.484L481.304 591.122C482.386 590.336 483.166 589.204 483.514 587.913C483.655 587.502 483.707 587.066 483.668 586.633C483.629 586.201 483.499 585.781 483.287 585.402C482.942 584.967 482.512 584.607 482.023 584.346C481.534 584.084 480.996 583.926 480.443 583.881L480.327 583.86L480.249 583.773L480.21 583.728C478.187 581.441 477.019 580.566 476.633 580.51L476.433 580.482L476.362 580.293C476.308 580.15 475.812 578.884 474.923 578.561C474.791 578.513 474.651 578.488 474.511 578.488C474.275 578.493 474.043 578.552 473.834 578.661C473.894 579.576 473.925 582.461 472.134 584.079C471.22 584.86 470.044 585.265 468.843 585.212C468.159 585.205 467.479 585.123 466.813 584.969L466.754 584.956L466.704 584.924C466.549 584.824 464.925 583.35 464.246 582.732L457.311 597.032L451.881 603.949C451.634 604.261 451.481 604.637 451.439 605.033C451.396 605.428 451.466 605.828 451.64 606.186C451.815 606.543 452.086 606.845 452.424 607.055C452.762 607.265 453.152 607.376 453.55 607.375C453.68 607.375 453.811 607.363 453.939 607.338L458.401 606.491C460.226 606.143 461.95 605.392 463.447 604.291L480.491 591.722Z" fill="#06060F"/>
<path d="M399.053 598.812H388.612V609.253H399.053V598.812Z" fill="#FFB9B9"/>
<path d="M397.271 618.75H375.079C373.172 618.747 371.29 618.319 369.571 617.496L365.477 615.527C365.026 615.31 364.652 614.961 364.406 614.526C364.159 614.092 364.05 613.592 364.095 613.094C364.139 612.596 364.335 612.124 364.655 611.74C364.975 611.356 365.405 611.078 365.887 610.945L374.329 608.607L388.765 601.018L388.775 601.075C389.047 602.441 389.466 604.509 389.518 604.633C390.998 606.333 392.518 607.111 394.037 606.955C396.686 606.683 398.447 603.625 398.468 603.594L398.483 603.568H398.509C398.778 603.581 399.041 603.654 399.278 603.784C399.515 603.914 399.719 604.096 399.875 604.316C400.251 605.105 400.314 606.007 400.052 606.841C400.774 607.548 401.101 611.506 401.127 611.823C401.577 612.222 401.942 612.708 402.196 613.254C402.451 613.799 402.59 614.391 402.607 614.992C402.55 615.471 402.394 615.932 402.146 616.345C401.899 616.759 401.567 617.116 401.173 617.392C400.065 618.274 398.689 618.75 397.273 618.743L397.271 618.75Z" fill="#090814"/>
<path d="M397.481 619.09H375.081C373.122 619.087 371.188 618.645 369.422 617.799L365.328 615.83C364.817 615.582 364.393 615.184 364.113 614.69C363.833 614.195 363.711 613.628 363.761 613.062C363.812 612.496 364.033 611.959 364.396 611.522C364.759 611.085 365.247 610.768 365.794 610.615L374.201 608.287L389.015 600.499L389.106 601.009C389.394 602.465 389.733 604.119 389.82 604.463C390.267 605.077 390.84 605.589 391.502 605.963C392.163 606.337 392.897 606.565 393.654 606.632C393.769 606.632 393.883 606.626 393.998 606.614C395.131 606.44 396.167 605.873 396.926 605.014C397.398 604.534 397.814 604.002 398.167 603.428L398.173 603.418L398.288 603.227H398.544C398.863 603.244 399.175 603.334 399.454 603.49C399.734 603.646 399.974 603.864 400.157 604.127C400.579 604.937 400.674 605.878 400.422 606.756C400.834 607.59 401.091 608.492 401.181 609.418C401.329 610.362 401.417 611.276 401.451 611.67C401.913 612.095 402.284 612.611 402.54 613.184C402.796 613.758 402.933 614.378 402.942 615.006C402.884 615.532 402.715 616.039 402.446 616.495C402.177 616.951 401.815 617.344 401.383 617.649C400.272 618.534 398.903 619.034 397.483 619.072L397.481 619.09ZM388.517 601.528L374.452 608.918L365.976 611.265C365.56 611.38 365.19 611.619 364.914 611.949C364.638 612.28 364.47 612.687 364.431 613.116C364.393 613.545 364.486 613.976 364.699 614.351C364.912 614.725 365.233 615.026 365.622 615.213L369.714 617.182C371.388 617.984 373.221 618.403 375.078 618.406H397.061L397.066 618.396H397.275C398.612 618.403 399.911 617.953 400.958 617.121C401.315 616.874 401.617 616.554 401.842 616.182C402.067 615.81 402.212 615.395 402.266 614.963C402.245 614.408 402.111 613.864 401.872 613.363C401.633 612.862 401.294 612.415 400.877 612.05L400.795 611.964L400.786 611.845C400.763 611.563 400.675 610.56 400.514 609.525C400.214 607.595 399.901 607.164 399.814 607.077L399.671 606.937L399.724 606.744C399.96 606.005 399.913 605.204 399.592 604.497C399.483 604.343 399.344 604.212 399.184 604.114C399.023 604.016 398.843 603.952 398.657 603.926C398.296 604.487 397.879 605.009 397.413 605.485C396.545 606.459 395.362 607.097 394.071 607.285C393.933 607.299 393.795 607.306 393.657 607.306C392.157 607.306 390.682 606.479 389.257 604.848L389.221 604.806L389.2 604.755C389.128 604.584 388.708 602.492 388.515 601.522L388.517 601.528Z" fill="#06060F"/>
<path d="M441.644 435.62L392.316 436.006L383.639 601.606H401.254L412.641 526.163L458.324 586.521L474.999 571.428L441.644 526.161V435.62Z" fill="#090814"/>
<path d="M431.951 413.075L442.2 436.633L392.091 436.753L400.782 414.635L431.951 413.075Z" fill="#FFB9B9"/>
<path d="M425.904 338.348C425.902 335.212 425.031 332.137 423.388 329.465C421.745 326.794 419.393 324.63 416.595 323.214C413.796 321.798 410.66 321.186 407.534 321.444C404.408 321.703 401.415 322.822 398.887 324.679C396.359 326.536 394.395 329.056 393.213 331.962C392.031 334.867 391.677 338.043 392.191 341.137C392.705 344.231 394.066 347.122 396.123 349.49C398.18 351.857 400.854 353.608 403.846 354.548L407.129 376.231L423.856 362.293C421.575 359.293 419.708 356 418.303 352.503C420.641 350.957 422.56 348.855 423.886 346.385C425.212 343.916 425.905 341.155 425.903 338.352L425.904 338.348Z" fill="#FFB9B9"/>
<path d="M425.448 355.101L405.46 367.88L396.234 384.171C393.563 388.89 392.661 394.405 393.689 399.729L397.928 421.671H442.128L435.148 375.916C434.254 370.076 432.03 364.52 428.648 359.677L425.448 355.11V355.101Z" fill="#090814"/>
<path d="M409.651 364.739L422.175 358.827C423.655 358.55 425.176 358.587 426.641 358.935C428.106 359.283 429.481 359.935 430.678 360.848C431.876 361.761 432.868 362.915 433.59 364.236C434.313 365.557 434.751 367.014 434.875 368.515L445.281 442.275H402.781L397.181 415.126L395.623 392.269L409.651 364.739Z" fill="#4671FB"/>
<path d="M443.181 476.144L440.205 459.963L430.756 461.698L433.732 477.879C432.983 478.988 432.462 480.234 432.2 481.547C431.938 482.859 431.94 484.21 432.205 485.521C433.13 490.565 437.27 494.03 441.441 493.266C445.612 492.502 448.241 487.785 447.321 482.747C447.103 481.427 446.624 480.163 445.912 479.03C445.201 477.897 444.27 476.917 443.176 476.147L443.181 476.144Z" fill="#FFB9B9"/>
<path d="M413.562 398.201L429.67 476.278L446.002 472.907L434.86 394.492" fill="#4671FB"/>
<path d="M431.355 360.648C431.355 360.648 430.56 366.663 423.22 366.857L408.327 367.257C408.327 367.257 420.919 336.613 415.74 340.068C410.561 343.523 396.758 329.05 396.758 329.05L392.684 336.69C392.684 336.69 382.949 333.168 393.739 324.535C393.739 324.535 406.606 314.587 420.269 320.561C433.932 326.535 431.354 360.654 431.354 360.654L431.355 360.648Z" fill="#090814"/>
<path d="M407.813 367.61L408.013 367.127C408.038 367.065 410.578 360.875 412.878 354.458C414.227 350.696 415.231 347.591 415.861 345.235C416.901 341.349 416.667 340.413 416.518 340.191C416.509 340.173 416.495 340.157 416.477 340.147C416.459 340.137 416.438 340.133 416.418 340.135C416.237 340.16 416.066 340.234 415.925 340.349C415.296 340.752 414.56 340.957 413.813 340.938C411.892 340.782 410.041 340.146 408.43 339.088C406.449 337.91 404.567 336.572 402.803 335.088C400.011 332.788 397.671 330.468 396.837 329.62L392.843 337.112L392.566 337.012C391.893 336.748 391.257 336.399 390.672 335.975C390.135 335.594 389.657 335.136 389.255 334.615C388.8 334.027 388.496 333.337 388.369 332.605C387.961 330.139 389.696 327.335 393.524 324.272C395.115 323.112 396.819 322.114 398.608 321.291C400.399 320.441 402.264 319.755 404.179 319.242C406.429 318.635 408.748 318.322 411.079 318.311C414.288 318.303 417.464 318.964 420.404 320.25C422.171 321.053 423.722 322.265 424.929 323.785C426.237 325.433 427.298 327.263 428.077 329.217C429.759 333.581 430.833 338.155 431.271 342.811C431.725 346.936 431.929 351.084 431.882 355.234C431.854 358.497 431.693 360.66 431.692 360.681H431.552L431.688 360.699C431.479 361.839 431.017 362.918 430.334 363.855C429.651 364.792 428.766 365.563 427.745 366.111C426.344 366.822 424.797 367.195 423.226 367.202L407.813 367.61ZM416.421 339.456C416.552 339.455 416.681 339.487 416.797 339.549C416.912 339.612 417.01 339.703 417.081 339.813C417.367 340.24 417.62 341.285 416.516 345.413C415.881 347.787 414.872 350.913 413.516 354.69C411.582 360.09 409.479 365.321 408.837 366.903L423.21 366.517C424.668 366.513 426.106 366.171 427.41 365.517C428.331 365.032 429.13 364.344 429.748 363.506C430.384 362.647 430.818 361.656 431.017 360.606C431.034 360.37 431.178 358.286 431.204 355.217C431.247 351.095 431.044 346.975 430.596 342.877C430.165 338.287 429.106 333.779 427.449 329.477C426.695 327.586 425.669 325.814 424.404 324.219C423.265 322.783 421.801 321.638 420.133 320.878C417.279 319.628 414.196 318.985 411.08 318.991C408.808 319.002 406.547 319.307 404.353 319.898C402.481 320.399 400.657 321.068 398.906 321.898C397.165 322.702 395.506 323.673 393.953 324.798C392.301 326.025 390.888 327.545 389.783 329.281C389.173 330.232 388.913 331.366 389.046 332.488C389.155 333.112 389.415 333.699 389.804 334.199C390.165 334.666 390.594 335.077 391.077 335.418C391.533 335.746 392.02 336.026 392.533 336.255L396.682 328.47L397.007 328.81C398.984 330.837 401.068 332.757 403.249 334.563C407.774 338.289 411.43 340.256 413.82 340.256C414.433 340.274 415.037 340.108 415.555 339.78C415.807 339.587 416.11 339.473 416.427 339.451L416.421 339.456Z" fill="#06060F"/>
<path d="M368.564 455.999L360.927 461.573C360.468 461.907 359.896 462.045 359.336 461.958C358.776 461.871 358.274 461.565 357.939 461.107L343.83 441.776C343.496 441.318 343.358 440.746 343.445 440.186C343.533 439.626 343.839 439.123 344.296 438.788L351.933 433.214C352.392 432.88 352.964 432.742 353.524 432.829C354.084 432.917 354.587 433.223 354.921 433.681L369.03 453.011C369.364 453.47 369.502 454.042 369.415 454.602C369.327 455.162 369.021 455.665 368.564 455.999Z" fill="#3F3D56"/>
<path d="M352.239 433.813L351.389 434.434C351.313 434.489 351.262 434.572 351.247 434.665C351.233 434.758 351.256 434.853 351.311 434.929C351.424 435.084 351.471 435.278 351.442 435.467C351.412 435.657 351.308 435.827 351.153 435.941L346.996 438.976C346.841 439.089 346.647 439.136 346.457 439.106C346.268 439.077 346.097 438.973 345.984 438.818C345.928 438.742 345.845 438.691 345.752 438.677C345.659 438.662 345.565 438.685 345.489 438.741L344.739 439.288C344.393 439.542 344.162 439.923 344.096 440.348C344.031 440.773 344.136 441.206 344.389 441.553L358.398 460.747C358.653 461.093 359.034 461.324 359.458 461.39C359.883 461.455 360.316 461.35 360.663 461.097L368.163 455.623C368.509 455.369 368.74 454.987 368.806 454.563C368.871 454.138 368.766 453.705 368.513 453.358L354.504 434.163C354.249 433.817 353.868 433.586 353.444 433.52C353.019 433.455 352.586 433.56 352.239 433.813Z" fill="#343434"/>
<path d="M416.76 342.287C416.921 341.918 416.971 341.509 416.902 341.112C416.833 340.715 416.65 340.347 416.374 340.053C416.163 339.835 415.919 339.652 415.652 339.509L415.552 339.482C415.253 339.404 414.938 339.426 414.653 339.543C414.368 339.661 414.129 339.868 413.973 340.134L413.918 340.227C413.806 340.416 413.74 340.629 413.725 340.848C413.71 341.067 413.746 341.287 413.831 341.49L414.038 341.99L412.725 344.156C412.668 344.25 412.649 344.361 412.672 344.468C412.695 344.575 412.758 344.669 412.849 344.731L413.138 344.931C413.185 344.963 413.238 344.986 413.293 344.997C413.349 345.009 413.407 345.009 413.463 344.998C413.519 344.987 413.572 344.964 413.619 344.933C413.666 344.901 413.706 344.86 413.738 344.812L414.901 343.031C415.019 343.081 415.144 343.115 415.272 343.131C415.578 343.173 415.889 343.113 416.159 342.961C416.428 342.809 416.64 342.573 416.763 342.289L416.76 342.287Z" fill="#343434"/>
<path d="M414.753 341.71C414.678 341.663 414.625 341.589 414.605 341.503C414.585 341.417 414.6 341.327 414.647 341.252L415.14 340.462C415.162 340.422 415.191 340.387 415.227 340.359C415.263 340.331 415.304 340.311 415.348 340.299C415.392 340.288 415.437 340.285 415.482 340.292C415.527 340.299 415.57 340.315 415.609 340.339C415.647 340.363 415.68 340.395 415.706 340.432C415.732 340.469 415.75 340.511 415.759 340.556C415.768 340.6 415.767 340.646 415.758 340.691C415.749 340.735 415.73 340.777 415.704 340.814L415.211 341.604C415.164 341.679 415.09 341.732 415.004 341.752C414.918 341.772 414.828 341.757 414.753 341.71Z" fill="#2F2E41"/>
</g>
<defs>
<clipPath id="clip0_2068_210">
<rect width="649.675" height="619.09" fill="white"/>
</clipPath>
</defs>
</svg>
