<svg width="692" height="490" viewBox="0 0 692 490" fill="none" xmlns="http://www.w3.org/2000/svg">
<g clip-path="url(#clip0_2068_120)">
<path d="M688.046 159.638C678.51 192.721 650.664 215.88 621.618 235.553C617.562 238.301 613.505 240.985 609.447 243.606C609.419 243.618 609.391 243.644 609.363 243.656C609.168 243.781 608.972 243.907 608.79 244.033C607.953 244.573 607.115 245.113 606.284 245.647L606.741 245.852C606.741 245.852 607.189 246.09 606.699 245.89C606.553 245.829 606.4 245.774 606.254 245.713C589.38 238.907 572.206 231.6 559.275 218.851C545.86 205.612 538.021 184.847 545.285 167.455C546.239 165.176 547.445 163.012 548.88 161.001C549.469 160.158 550.104 159.351 550.765 158.559C554.771 153.669 560.008 149.934 565.937 147.739C571.866 145.543 578.272 144.967 584.498 146.068C590.723 147.17 596.543 149.909 601.358 154.005C606.174 158.102 609.811 163.407 611.897 169.375C614.031 149.506 597.648 132.863 581.881 120.583C566.108 108.309 548.184 94.9419 545.135 75.1834C543.432 64.19 547.255 53.5363 554.219 44.9839C554.434 44.7241 554.65 44.4646 554.872 44.2119C563.349 34.2508 575.272 27.8545 588.259 26.3003C612.445 23.7866 635.939 36.5891 653.51 53.4057C681.791 80.4626 698.888 122.022 688.046 159.638Z" fill="#F2F2F2"/>
<path d="M642.584 116.365C647.226 123.587 650.789 131.447 653.163 139.698C655.17 147.072 656.063 154.705 655.813 162.343C655.378 178.044 650.548 193.386 642.947 207.051C637.066 217.412 629.9 226.989 621.617 235.553C617.562 238.3 613.505 240.985 609.447 243.606C609.419 243.618 609.391 243.643 609.363 243.656C609.168 243.781 608.972 243.907 608.79 244.033C607.953 244.573 607.115 245.113 606.284 245.647C606.284 245.647 607.188 246.09 606.698 245.89C606.552 245.829 606.399 245.774 606.254 245.713C607.766 233.314 606.285 220.732 601.933 209.024C597.582 197.315 590.488 186.819 581.245 178.417C571.979 170.143 560.89 164.175 548.88 161.001C549.469 160.158 550.104 159.351 550.764 158.559C555.403 159.86 559.917 161.568 564.255 163.664C579.76 171.109 592.456 183.35 600.463 198.573C607.648 212.396 610.741 227.982 609.377 243.501C610.071 242.873 610.765 242.231 611.438 241.595C624.261 229.64 635.65 215.918 643.357 200.082C650.044 186.671 653.331 171.821 652.927 156.841C652.298 140.507 645.79 125.377 636.367 112.206C626.273 98.1093 613.618 85.6377 600.105 74.8335C586.263 63.7474 571.118 54.3966 555.005 46.9897C554.641 46.8201 554.357 46.5173 554.211 46.144C554.064 45.7706 554.067 45.3553 554.218 44.9839C554.326 44.6505 554.56 44.3731 554.871 44.2118C555.031 44.1428 555.205 44.1108 555.379 44.1182C555.553 44.1256 555.723 44.1722 555.876 44.2545C557.866 45.1703 559.841 46.0987 561.801 47.0672C578.124 55.135 593.381 65.1994 607.222 77.029C620.592 88.4276 633.179 101.45 642.584 116.365Z" fill="white"/>
<path d="M532.411 349.069C551.946 349.069 567.783 333.233 567.783 313.698C567.783 294.163 551.946 278.326 532.411 278.326C512.876 278.326 497.04 294.163 497.04 313.698C497.04 333.233 512.876 349.069 532.411 349.069Z" fill="#2F2E41"/>
<path d="M504.803 294.626C510.518 288.911 511.677 280.802 507.39 276.515C503.103 272.228 494.994 273.386 489.278 279.102C483.562 284.818 482.404 292.927 486.691 297.214C490.978 301.501 499.087 300.342 504.803 294.626Z" fill="#2F2E41"/>
<path d="M569.278 283.394C571.659 277.819 567.564 270.725 560.13 267.55C552.696 264.374 544.74 266.32 542.358 271.895C539.977 277.47 544.072 284.564 551.506 287.739C558.939 290.915 566.896 288.969 569.278 283.394Z" fill="#2F2E41"/>
<path d="M607.32 465.57C601.242 469.792 594.819 473.495 588.12 476.64L587.13 474.89L577.65 458.25L576.82 456.79L571.97 448.28L571.96 448.27L556.65 421.37L548.78 407.56L572.15 391.17L581.24 410.39L586.17 420.83L606.46 463.74L607.32 465.57Z" fill="#A0616A"/>
<path d="M586.44 400.67L583.51 396.08L570.55 375.75C568.78 371.8 565.517 368.712 561.476 367.164C557.434 365.615 552.944 365.731 548.988 367.487C545.032 369.243 541.933 372.495 540.37 376.531C538.807 380.567 538.908 385.058 540.65 389.02L548.66 417.56C548.886 418.367 549.282 419.117 549.822 419.759C550.361 420.401 551.032 420.92 551.789 421.281C552.546 421.641 553.371 421.836 554.21 421.852C555.048 421.867 555.88 421.703 556.65 421.37C556.68 421.36 556.7 421.35 556.73 421.34L581.24 410.39L583.88 409.21C584.651 408.863 585.338 408.354 585.895 407.718C586.452 407.082 586.866 406.334 587.109 405.524C587.351 404.714 587.417 403.862 587.302 403.024C587.187 402.187 586.893 401.384 586.44 400.67Z" fill="#4671FB"/>
<path d="M516.02 401.31L509.2 416.71L507.72 420.06L482.47 477.1L481.66 478.93C474.823 476.079 468.239 472.653 461.98 468.69L462.66 466.77L483.27 408.62L488.33 394.34L499.41 397.13L516.02 401.31Z" fill="#A0616A"/>
<path d="M559.874 336.541C567.827 321.993 562.48 303.754 547.933 295.801C533.385 287.849 515.145 293.195 507.193 307.743C499.241 322.29 504.587 340.53 519.135 348.482C533.682 356.435 551.922 351.088 559.874 336.541Z" fill="#A0616A"/>
<path d="M585.86 407.76C585.426 403.804 584.64 399.896 583.51 396.08C580.106 384.592 573.597 374.266 564.7 366.24C561.431 363.306 557.192 361.685 552.8 361.69H510.51C507.471 361.682 504.48 362.453 501.823 363.93C499.167 365.407 496.933 367.54 495.336 370.125C493.738 372.711 492.83 375.663 492.698 378.699C492.565 381.736 493.213 384.755 494.58 387.47L499.41 397.13L509.2 416.71L511.55 421.4L522.02 442.35L522.85 444.01L576 458.63L576.23 458.12C576.43 457.67 576.63 457.23 576.82 456.79C577.11 456.12 577.4 455.47 577.67 454.81C583.03 442.1 585.56 430.79 586.17 420.83C586.444 416.473 586.34 412.1 585.86 407.76Z" fill="#4671FB"/>
<path d="M518.18 367.17C514.268 365.337 509.789 365.129 505.724 366.591C501.659 368.053 498.339 371.065 496.49 374.97L492.72 380.66L480.12 399.68C479.652 400.386 479.342 401.184 479.211 402.02C479.08 402.857 479.13 403.711 479.359 404.527C479.587 405.342 479.989 406.098 480.536 406.744C481.084 407.39 481.764 407.91 482.53 408.27L483.27 408.62L507.72 420.06L509.46 420.87C510.116 421.179 510.826 421.359 511.55 421.4C512.516 421.476 513.486 421.308 514.37 420.91C515.141 420.565 515.829 420.057 516.386 419.422C516.944 418.787 517.358 418.039 517.6 417.23L526.06 388.92C527.895 384.99 528.096 380.493 526.619 376.415C525.142 372.337 522.107 369.012 518.18 367.17Z" fill="#4671FB"/>
<path d="M577.67 454.81C577.491 454.188 577.204 453.602 576.82 453.08C575.452 451.247 573.818 449.629 571.97 448.28L571.96 448.27C565.53 443.4 552.73 437.71 528.04 437.56H528C526.868 437.559 525.76 437.884 524.808 438.496C523.856 439.107 523.1 439.98 522.63 441.01L522.02 442.35L518.09 450.99C517.757 451.734 517.228 452.373 516.56 452.84C513.01 455.35 501.71 464.45 495.87 481.83C495.66 482.45 495.46 483.08 495.27 483.73C520.239 491.025 546.807 490.785 571.64 483.04L572.19 480.77L577.65 458.25L577.74 457.88C577.988 456.868 577.963 455.809 577.67 454.81Z" fill="#2F2E41"/>
<path d="M501.99 303.26C508.85 307.988 516.992 310.504 525.323 310.471C522.351 312.531 518.968 313.923 515.406 314.551C526.483 316.927 537.932 316.991 549.035 314.74C551.503 314.344 553.884 313.526 556.075 312.322C557.166 311.712 558.117 310.88 558.866 309.878C559.614 308.877 560.144 307.73 560.42 306.51C561.158 302.295 557.873 298.466 554.46 295.885C549.235 291.994 543.209 289.314 536.82 288.037C530.431 286.76 523.839 286.92 517.519 288.503C513.392 289.57 509.258 291.372 506.578 294.686C503.898 298 503.104 303.109 505.657 306.522L501.99 303.26Z" fill="#2F2E41"/>
<path d="M543.402 30.4795H1.08594V32.6531H543.402V30.4795Z" fill="#3F3D56"/>
<path d="M19.5618 22.8283C23.1632 22.8283 26.0827 19.9088 26.0827 16.3075C26.0827 12.7061 23.1632 9.78662 19.5618 9.78662C15.9605 9.78662 13.041 12.7061 13.041 16.3075C13.041 19.9088 15.9605 22.8283 19.5618 22.8283Z" fill="#3F3D56"/>
<path d="M38.3089 22.8283C41.9103 22.8283 44.8297 19.9088 44.8297 16.3075C44.8297 12.7061 41.9103 9.78662 38.3089 9.78662C34.7076 9.78662 31.7881 12.7061 31.7881 16.3075C31.7881 19.9088 34.7076 22.8283 38.3089 22.8283Z" fill="#3F3D56"/>
<path d="M57.0565 22.8283C60.6578 22.8283 63.5773 19.9088 63.5773 16.3075C63.5773 12.7061 60.6578 9.78662 57.0565 9.78662C53.4551 9.78662 50.5356 12.7061 50.5356 16.3075C50.5356 19.9088 53.4551 22.8283 57.0565 22.8283Z" fill="#3F3D56"/>
<path d="M425.951 156.622H118.152C117.236 156.622 116.329 156.442 115.483 156.091C114.637 155.741 113.868 155.227 113.22 154.579C112.572 153.931 112.058 153.162 111.708 152.316C111.357 151.47 111.177 150.563 111.177 149.646C111.177 148.73 111.357 147.823 111.708 146.977C112.058 146.131 112.572 145.362 113.22 144.714C113.868 144.066 114.637 143.552 115.483 143.202C116.329 142.851 117.236 142.671 118.152 142.671H425.951C426.867 142.671 427.774 142.851 428.621 143.202C429.467 143.552 430.236 144.066 430.884 144.714C431.532 145.362 432.045 146.131 432.396 146.977C432.746 147.823 432.927 148.73 432.927 149.646C432.927 150.563 432.746 151.47 432.396 152.316C432.045 153.162 431.532 153.931 430.884 154.579C430.236 155.227 429.467 155.741 428.621 156.091C427.774 156.442 426.867 156.622 425.951 156.622Z" fill="#CCCCCC"/>
<path d="M425.951 231.61H118.152C117.236 231.61 116.329 231.429 115.483 231.079C114.637 230.728 113.868 230.215 113.22 229.567C112.572 228.919 112.058 228.15 111.708 227.304C111.357 226.457 111.177 225.55 111.177 224.634C111.177 223.718 111.357 222.811 111.708 221.965C112.058 221.119 112.572 220.35 113.22 219.702C113.868 219.054 114.637 218.54 115.483 218.19C116.329 217.839 117.236 217.659 118.152 217.659H425.951C426.867 217.659 427.774 217.839 428.621 218.19C429.467 218.54 430.236 219.054 430.884 219.702C431.532 220.35 432.045 221.119 432.396 221.965C432.746 222.811 432.927 223.718 432.927 224.634C432.927 225.55 432.746 226.457 432.396 227.304C432.045 228.15 431.532 228.919 430.884 229.567C430.236 230.215 429.467 230.728 428.621 231.079C427.774 231.429 426.867 231.61 425.951 231.61Z" fill="#E6E6E6"/>
<path d="M425.951 260.384H118.152C116.302 260.384 114.528 259.649 113.22 258.341C111.912 257.033 111.177 255.259 111.177 253.409C111.177 251.559 111.912 249.784 113.22 248.476C114.528 247.168 116.302 246.433 118.152 246.433H425.951C427.801 246.433 429.576 247.168 430.884 248.476C432.192 249.784 432.927 251.559 432.927 253.409C432.927 255.259 432.192 257.033 430.884 258.341C429.576 259.649 427.801 260.384 425.951 260.384Z" fill="#E6E6E6"/>
<path d="M375.814 126.976H168.29C166.44 126.976 164.665 126.241 163.357 124.933C162.049 123.624 161.314 121.85 161.314 120C161.314 118.15 162.049 116.376 163.357 115.068C164.665 113.759 166.44 113.024 168.29 113.024H375.814C377.664 113.024 379.438 113.759 380.746 115.068C382.055 116.376 382.79 118.15 382.79 120C382.79 121.85 382.055 123.624 380.746 124.933C379.438 126.241 377.664 126.976 375.814 126.976Z" fill="#CCCCCC"/>
<path d="M226.666 202.836H118.544C117.627 202.837 116.719 202.657 115.872 202.307C115.024 201.957 114.254 201.443 113.606 200.795C112.957 200.147 112.442 199.378 112.091 198.531C111.74 197.684 111.56 196.777 111.56 195.86C111.56 194.943 111.74 194.035 112.091 193.189C112.442 192.342 112.957 191.572 113.606 190.924C114.254 190.277 115.024 189.763 115.872 189.413C116.719 189.063 117.627 188.883 118.544 188.884H226.666C228.516 188.884 230.29 189.619 231.598 190.927C232.906 192.236 233.641 194.01 233.641 195.86C233.641 197.71 232.906 199.484 231.598 200.792C230.29 202.101 228.516 202.836 226.666 202.836Z" fill="#E6E6E6"/>
<path d="M426.342 202.836H318.22C317.304 202.837 316.396 202.657 315.548 202.307C314.701 201.957 313.931 201.443 313.282 200.795C312.634 200.147 312.119 199.378 311.768 198.531C311.417 197.684 311.236 196.777 311.236 195.86C311.236 194.943 311.417 194.035 311.768 193.189C312.119 192.342 312.634 191.572 313.282 190.924C313.931 190.277 314.701 189.763 315.548 189.413C316.396 189.063 317.304 188.883 318.22 188.884H426.342C427.259 188.883 428.167 189.063 429.014 189.413C429.862 189.763 430.632 190.277 431.28 190.924C431.929 191.572 432.443 192.342 432.794 193.189C433.146 194.035 433.326 194.943 433.326 195.86C433.326 196.777 433.146 197.684 432.794 198.531C432.443 199.378 431.929 200.147 431.28 200.795C430.632 201.443 429.862 201.957 429.014 202.307C428.167 202.657 427.259 202.837 426.342 202.836Z" fill="#E6E6E6"/>
<path d="M536.88 0H7.6001C5.58365 0.00306767 3.65081 0.806139 2.22589 2.23291C0.800976 3.65968 0.000442724 5.59355 0 7.61V366.26C0.00254034 368.275 0.804073 370.206 2.22882 371.631C3.65357 373.056 5.58521 373.857 7.6001 373.86H403.39C403.29 373.14 403.21 372.41 403.13 371.69H7.6001C6.16035 371.689 4.77994 371.116 3.76187 370.098C2.7438 369.08 2.17125 367.7 2.16992 366.26V7.61C2.17086 6.16921 2.74296 4.78756 3.76083 3.76785C4.7787 2.74814 6.15931 2.17354 7.6001 2.17H536.88C538.322 2.1715 539.705 2.74513 540.725 3.765C541.745 4.78487 542.318 6.16769 542.32 7.61V227.42C543.04 227.47 543.77 227.53 544.49 227.6V7.61C544.489 5.59196 543.687 3.65686 542.26 2.22992C540.833 0.802979 538.898 0.000927415 536.88 0Z" fill="#3F3D56"/>
<path d="M403.39 373.86C403.29 373.14 403.21 372.41 403.13 371.69C403.11 371.58 403.1 371.48 403.09 371.37C402.8 368.74 402.59 366.083 402.46 363.4C401.91 365.71 401.414 368.03 400.97 370.36C401 370.7 401.03 371.03 401.07 371.37C401.08 371.48 401.09 371.58 401.11 371.69C401.19 372.41 401.27 373.14 401.37 373.86C401.65 376.09 401.99 378.29 402.39 380.48C402.4 380.39 402.41 380.31 402.42 380.22C402.7 378.11 403.02 376.01 403.4 373.91C403.392 373.895 403.389 373.877 403.39 373.86ZM544.49 225.59C543.77 225.52 543.04 225.46 542.32 225.41C542.21 225.4 542.11 225.4 542 225.39C538.8 225.15 535.56 225.03 532.3 225.03C513.843 225.036 495.592 228.911 478.725 236.406C461.858 243.9 446.749 254.848 434.374 268.542C421.999 282.236 412.633 298.373 406.879 315.91C401.126 333.448 399.113 351.997 400.97 370.36C401 370.7 401.03 371.03 401.07 371.37C401.08 371.48 401.09 371.58 401.11 371.69C401.19 372.41 401.27 373.14 401.37 373.86C401.65 376.09 401.99 378.29 402.39 380.48C406.363 402.192 415.694 422.568 429.537 439.76C443.38 456.952 461.296 470.416 481.66 478.93C483.74 479.79 485.84 480.61 487.97 481.36C489.37 481.87 490.77 482.34 492.19 482.79C493.21 483.12 494.24 483.43 495.27 483.73C496.73 484.16 498.21 484.57 499.7 484.95C517.978 489.639 537.052 490.335 555.623 486.991C574.194 483.647 591.826 476.341 607.32 465.57H607.33C624.9 453.439 639.264 437.224 649.187 418.318C659.11 399.413 664.296 378.381 664.3 357.03C664.3 288.35 611.58 231.76 544.49 225.59ZM606.46 463.74C600.35 468.006 593.882 471.737 587.13 474.89C582.278 477.161 577.288 479.125 572.19 480.77C549.185 488.173 524.573 489.028 501.11 483.24C499.35 482.81 497.604 482.34 495.87 481.83C494.16 481.33 492.467 480.8 490.79 480.24C489.42 479.77 488.05 479.29 486.69 478.78C485.27 478.24 483.87 477.68 482.47 477.1C461.412 468.324 443.027 454.175 429.151 436.067C415.276 417.959 406.396 396.526 403.4 373.91C403.392 373.895 403.389 373.877 403.39 373.86C403.29 373.14 403.21 372.41 403.13 371.69C403.11 371.58 403.1 371.48 403.09 371.37C402.8 368.74 402.59 366.083 402.46 363.4C402.35 361.29 402.297 359.167 402.3 357.03C402.338 322.563 416.046 289.519 440.418 265.148C464.789 240.776 497.833 227.068 532.3 227.03C535.56 227.03 538.8 227.15 542 227.39C542.11 227.4 542.21 227.41 542.32 227.42C543.04 227.47 543.77 227.53 544.49 227.6C610.48 233.76 662.3 289.45 662.3 357.03C662.297 378.003 657.217 398.664 647.493 417.247C637.769 435.829 623.69 451.782 606.46 463.74ZM486.69 478.78C485.27 478.24 483.87 477.68 482.47 477.1C461.412 468.324 443.027 454.175 429.151 436.067C415.276 417.959 406.396 396.526 403.4 373.91C403.02 376.01 402.7 378.11 402.42 380.22C402.41 380.31 402.4 380.39 402.39 380.48C406.363 402.192 415.694 422.568 429.537 439.76C443.38 456.952 461.296 470.416 481.66 478.93C483.74 479.79 485.84 480.61 487.97 481.36C487.53 480.51 487.1 479.65 486.69 478.78ZM542 225.39C538.8 225.15 535.56 225.03 532.3 225.03C513.843 225.036 495.592 228.911 478.725 236.406C461.858 243.9 446.749 254.848 434.374 268.542C421.999 282.236 412.633 298.373 406.879 315.91C401.126 333.448 399.113 351.997 400.97 370.36C401 370.7 401.03 371.03 401.07 371.37C401.08 371.48 401.09 371.58 401.11 371.69H403.13C403.11 371.58 403.1 371.48 403.09 371.37C402.8 368.74 402.59 366.083 402.46 363.4C402.35 361.29 402.297 359.167 402.3 357.03C402.338 322.563 416.046 289.519 440.418 265.148C464.789 240.776 497.833 227.068 532.3 227.03C535.56 227.03 538.8 227.15 542 227.39C542.11 227.4 542.21 227.41 542.32 227.42L542.32 225.41C542.21 225.4 542.11 225.4 542 225.39Z" fill="#3F3D56"/>
<path d="M639.595 258.817C680.139 259.509 680.132 319.817 639.593 320.504C599.051 319.812 599.057 259.503 639.595 258.817Z" fill="#4671FB"/>
<path d="M639.595 306.455C639.02 306.454 638.469 306.226 638.063 305.819C637.656 305.413 637.428 304.862 637.427 304.287V292.794C637.427 292.538 637.325 292.293 637.144 292.111C636.963 291.93 636.717 291.828 636.461 291.828H624.968C624.393 291.828 623.842 291.6 623.435 291.193C623.029 290.786 622.8 290.235 622.8 289.66C622.8 289.085 623.029 288.534 623.435 288.127C623.842 287.721 624.393 287.492 624.968 287.492H636.461C636.717 287.492 636.963 287.39 637.144 287.209C637.325 287.028 637.427 286.783 637.427 286.527V275.033C637.427 274.458 637.655 273.907 638.062 273.5C638.468 273.094 639.02 272.865 639.595 272.865C640.169 272.865 640.721 273.094 641.127 273.5C641.534 273.907 641.762 274.458 641.762 275.033V286.526C641.762 286.783 641.864 287.028 642.045 287.209C642.226 287.39 642.472 287.492 642.728 287.492H654.221C654.796 287.492 655.347 287.721 655.754 288.127C656.16 288.534 656.389 289.085 656.389 289.66C656.389 290.235 656.16 290.786 655.754 291.193C655.347 291.6 654.796 291.828 654.221 291.828H642.728C642.472 291.828 642.226 291.93 642.045 292.111C641.864 292.293 641.762 292.538 641.762 292.794V304.287C641.761 304.862 641.533 305.413 641.127 305.819C640.72 306.225 640.169 306.454 639.595 306.455Z" fill="white"/>
</g>
<defs>
<clipPath id="clip0_2068_120">
<rect width="691.336" height="489.03" fill="white"/>
</clipPath>
</defs>
</svg>
