<svg width="800" height="553" viewBox="0 0 800 553" fill="none" xmlns="http://www.w3.org/2000/svg">
<g clip-path="url(#clip0_2068_148)">
<path d="M785.855 0H13.6144C9.97417 0.0353855 6.49661 1.5132 3.94459 4.10928C1.39257 6.70536 -0.0255653 10.2077 0.00135288 13.848V538.508C-0.019707 542.144 1.40124 545.64 3.95283 548.23C6.50442 550.82 9.97865 552.293 13.6144 552.327H785.855C789.491 552.293 792.965 550.82 795.517 548.23C798.068 545.64 799.489 542.144 799.468 538.508V13.848C799.495 10.208 798.077 6.70601 795.526 4.10999C792.974 1.51396 789.497 0.0359117 785.857 0H785.855Z" fill="#090814"/>
<path d="M763.533 3.16406H14.9334C11.4306 3.17068 8.07352 4.56668 5.59882 7.0457C3.12411 9.52472 1.73392 12.8842 1.7334 16.3871V517.394C1.73842 520.893 3.13077 524.248 5.60516 526.722C8.07956 529.197 11.4341 530.589 14.9334 530.594H763.533C767.033 530.589 770.387 529.197 772.862 526.722C775.336 524.248 776.728 520.893 776.733 517.394V16.3881C776.733 12.8864 775.344 9.52775 772.871 7.04887C770.398 4.57 767.042 3.17326 763.54 3.16505L763.533 3.16406Z" fill="white"/>
<path d="M69.7246 41.6631C75.7997 41.6631 80.7246 36.7382 80.7246 30.6631C80.7246 24.588 75.7997 19.6631 69.7246 19.6631C63.6495 19.6631 58.7246 24.588 58.7246 30.6631C58.7246 36.7382 63.6495 41.6631 69.7246 41.6631Z" fill="#3F3D56"/>
<path d="M107.725 41.6631C113.8 41.6631 118.725 36.7382 118.725 30.6631C118.725 24.588 113.8 19.6631 107.725 19.6631C101.649 19.6631 96.7246 24.588 96.7246 30.6631C96.7246 36.7382 101.649 41.6631 107.725 41.6631Z" fill="#3F3D56"/>
<path d="M145.725 41.6631C151.8 41.6631 156.725 36.7382 156.725 30.6631C156.725 24.588 151.8 19.6631 145.725 19.6631C139.649 19.6631 134.725 24.588 134.725 30.6631C134.725 36.7382 139.649 41.6631 145.725 41.6631Z" fill="#3F3D56"/>
<path d="M718.018 55.6631H60.4506C59.4976 55.6631 58.7246 55.2151 58.7246 54.6631C58.7246 54.1111 59.4976 53.6631 60.4506 53.6631H718.018C718.971 53.6631 719.744 54.1111 719.744 54.6631C719.744 55.2151 718.971 55.6631 718.018 55.6631Z" fill="#CACACA"/>
<path d="M444.94 159.337H139.453C137.549 159.338 135.723 160.095 134.376 161.441C133.029 162.788 132.272 164.614 132.271 166.519V410.719C132.272 412.623 133.029 414.45 134.376 415.796C135.723 417.143 137.549 417.9 139.453 417.901H444.94C446.845 417.9 448.671 417.143 450.018 415.796C451.365 414.45 452.122 412.623 452.122 410.719V166.519C452.122 164.614 451.365 162.788 450.018 161.441C448.671 160.095 446.845 159.338 444.94 159.337ZM449.249 410.717C449.248 411.859 448.793 412.954 447.985 413.762C447.178 414.569 446.083 415.024 444.94 415.026H139.453C138.311 415.024 137.216 414.569 136.409 413.762C135.601 412.954 135.146 411.859 135.144 410.717V166.517C135.146 165.375 135.601 164.28 136.409 163.472C137.216 162.664 138.311 162.21 139.453 162.208H444.94C446.083 162.21 447.178 162.664 447.985 163.472C448.793 164.28 449.248 165.375 449.249 166.517V410.717Z" fill="#3F3D56"/>
<path d="M433.196 269.253H151.196C146.778 269.253 143.196 272.835 143.196 277.253V298.253C143.196 302.671 146.778 306.253 151.196 306.253H433.196C437.615 306.253 441.196 302.671 441.196 298.253V277.253C441.196 272.835 437.615 269.253 433.196 269.253Z" fill="#4671FB"/>
<path d="M220.719 188.539C219.965 188.529 219.216 188.669 218.516 188.95C217.817 189.232 217.18 189.65 216.643 190.18C216.106 190.71 215.68 191.341 215.389 192.037C215.098 192.732 214.948 193.479 214.948 194.233C214.948 194.988 215.098 195.734 215.389 196.43C215.68 197.126 216.106 197.757 216.643 198.287C217.18 198.817 217.817 199.235 218.516 199.516C219.216 199.798 219.965 199.938 220.719 199.928H363.489C364.241 199.947 364.989 199.817 365.69 199.545C366.392 199.274 367.033 198.866 367.575 198.345C368.118 197.824 368.553 197.201 368.854 196.512C369.154 195.822 369.316 195.08 369.328 194.328C369.34 193.576 369.203 192.829 368.925 192.13C368.647 191.431 368.234 190.794 367.708 190.256C367.183 189.718 366.556 189.289 365.864 188.994C365.172 188.7 364.428 188.545 363.676 188.54C363.614 188.54 363.551 188.54 363.489 188.54L220.719 188.539Z" fill="#CACACA"/>
<path d="M220.719 234.789C219.965 234.779 219.216 234.919 218.516 235.2C217.817 235.482 217.18 235.9 216.643 236.43C216.106 236.96 215.68 237.591 215.389 238.287C215.098 238.982 214.948 239.729 214.948 240.483C214.948 241.238 215.098 241.984 215.389 242.68C215.68 243.376 216.106 244.007 216.643 244.537C217.18 245.067 217.817 245.485 218.516 245.766C219.216 246.048 219.965 246.188 220.719 246.178H363.489C364.241 246.197 364.989 246.067 365.69 245.795C366.392 245.524 367.033 245.116 367.575 244.595C368.118 244.074 368.553 243.451 368.854 242.762C369.154 242.072 369.316 241.33 369.328 240.578C369.34 239.826 369.203 239.079 368.925 238.38C368.647 237.681 368.234 237.044 367.708 236.506C367.183 235.968 366.556 235.539 365.864 235.244C365.172 234.95 364.428 234.795 363.676 234.79C363.614 234.79 363.551 234.79 363.489 234.79L220.719 234.789Z" fill="#CACACA"/>
<path d="M220.719 281.039C219.965 281.029 219.216 281.169 218.516 281.45C217.817 281.732 217.18 282.15 216.643 282.68C216.106 283.21 215.68 283.841 215.389 284.537C215.098 285.232 214.948 285.979 214.948 286.733C214.948 287.488 215.098 288.234 215.389 288.93C215.68 289.626 216.106 290.257 216.643 290.787C217.18 291.317 217.817 291.735 218.516 292.016C219.216 292.298 219.965 292.438 220.719 292.428H363.489C364.241 292.447 364.989 292.317 365.69 292.045C366.392 291.774 367.033 291.366 367.575 290.845C368.118 290.324 368.553 289.701 368.854 289.012C369.154 288.322 369.316 287.58 369.328 286.828C369.34 286.076 369.203 285.329 368.925 284.63C368.647 283.931 368.234 283.294 367.708 282.756C367.183 282.218 366.556 281.789 365.864 281.494C365.172 281.2 364.428 281.045 363.676 281.04C363.614 281.04 363.551 281.04 363.489 281.04L220.719 281.039Z" fill="#F2F2F2"/>
<path d="M220.719 327.289C219.965 327.279 219.216 327.419 218.516 327.701C217.817 327.982 217.18 328.4 216.643 328.93C216.106 329.46 215.68 330.091 215.389 330.787C215.098 331.483 214.948 332.229 214.948 332.984C214.948 333.738 215.098 334.485 215.389 335.18C215.68 335.876 216.106 336.507 216.643 337.037C217.18 337.567 217.817 337.985 218.516 338.266C219.216 338.548 219.965 338.688 220.719 338.678H363.489C364.99 338.689 366.435 338.107 367.51 337.058C368.584 336.009 369.2 334.578 369.225 333.077C369.25 331.575 368.68 330.125 367.641 329.041C366.602 327.958 365.177 327.328 363.676 327.29C363.614 327.29 363.551 327.29 363.489 327.29L220.719 327.289Z" fill="#CACACA"/>
<path d="M220.719 373.539C219.965 373.529 219.216 373.669 218.516 373.951C217.817 374.232 217.18 374.65 216.643 375.18C216.106 375.71 215.68 376.341 215.389 377.037C215.098 377.733 214.948 378.479 214.948 379.234C214.948 379.988 215.098 380.735 215.389 381.43C215.68 382.126 216.106 382.757 216.643 383.287C217.18 383.817 217.817 384.235 218.516 384.516C219.216 384.798 219.965 384.938 220.719 384.928H363.489C364.99 384.939 366.435 384.357 367.51 383.308C368.584 382.259 369.2 380.828 369.225 379.327C369.25 377.825 368.68 376.375 367.641 375.291C366.602 374.208 365.177 373.578 363.676 373.54C363.614 373.54 363.551 373.54 363.489 373.54L220.719 373.539Z" fill="#CACACA"/>
<path d="M404.196 103.253H180.196C175.778 103.253 172.196 106.835 172.196 111.253V139.253C172.196 143.671 175.778 147.253 180.196 147.253H404.196C408.615 147.253 412.196 143.671 412.196 139.253V111.253C412.196 106.835 408.615 103.253 404.196 103.253Z" fill="#E6E6E6"/>
<path d="M390.018 137.253L402.718 115.253H377.318L390.018 137.253L402.718 115.253H377.318L390.018 137.253Z" fill="#4671FB"/>
<path d="M363.196 115.253H195.196C190.778 115.253 187.196 118.835 187.196 123.253V129.253C187.196 133.671 190.778 137.253 195.196 137.253H363.196C367.615 137.253 371.196 133.671 371.196 129.253V123.253C371.196 118.835 367.615 115.253 363.196 115.253Z" fill="#4671FB"/>
<path d="M662.78 206.712H452.221C450.909 206.712 449.65 207.234 448.722 208.162C447.794 209.09 447.272 210.349 447.271 211.662V379.978C447.272 381.291 447.794 382.549 448.722 383.477C449.65 384.406 450.909 384.927 452.221 384.928H662.78C664.093 384.927 665.352 384.406 666.28 383.477C667.208 382.549 667.73 381.291 667.73 379.978V211.658C667.729 210.346 667.207 209.088 666.279 208.161C665.351 207.234 664.092 206.712 662.78 206.712Z" fill="white"/>
<path d="M662.78 206.71H452.221C450.909 206.71 449.65 207.232 448.722 208.16C447.794 209.089 447.272 210.347 447.271 211.66V379.976C447.272 381.289 447.794 382.547 448.722 383.476C449.65 384.404 450.909 384.925 452.221 384.926H662.78C664.093 384.925 665.352 384.404 666.28 383.476C667.208 382.547 667.73 381.289 667.73 379.976V211.656C667.729 210.344 667.207 209.086 666.279 208.159C665.351 207.232 664.092 206.71 662.78 206.71ZM665.75 379.976C665.749 380.763 665.436 381.518 664.879 382.075C664.322 382.631 663.568 382.945 662.78 382.946H452.221C451.434 382.945 450.679 382.631 450.123 382.075C449.566 381.518 449.253 380.763 449.251 379.976V211.656C449.253 210.869 449.566 210.114 450.123 209.557C450.679 209.001 451.434 208.687 452.221 208.686H662.78C663.568 208.687 664.322 209.001 664.879 209.557C665.436 210.114 665.749 210.869 665.75 211.656V379.976Z" fill="#3F3D56"/>
<path d="M482.892 234.808C482.137 234.798 481.389 234.938 480.689 235.219C479.989 235.501 479.353 235.919 478.816 236.449C478.279 236.979 477.853 237.61 477.562 238.306C477.271 239.001 477.121 239.748 477.121 240.502C477.121 241.257 477.271 242.003 477.562 242.699C477.853 243.395 478.279 244.026 478.816 244.556C479.353 245.086 479.989 245.504 480.689 245.785C481.389 246.067 482.137 246.207 482.892 246.197H625.662C626.414 246.216 627.162 246.086 627.863 245.814C628.565 245.543 629.205 245.135 629.748 244.614C630.291 244.093 630.726 243.47 631.026 242.781C631.327 242.092 631.488 241.349 631.501 240.597C631.513 239.845 631.376 239.098 631.098 238.399C630.82 237.7 630.407 237.063 629.881 236.525C629.356 235.987 628.729 235.558 628.037 235.264C627.344 234.969 626.601 234.814 625.849 234.809C625.787 234.809 625.724 234.809 625.662 234.809L482.892 234.808Z" fill="#CACACA"/>
<path d="M482.892 263.558C482.137 263.548 481.389 263.688 480.689 263.969C479.989 264.251 479.353 264.669 478.816 265.199C478.279 265.729 477.853 266.36 477.562 267.056C477.271 267.751 477.121 268.498 477.121 269.252C477.121 270.007 477.271 270.753 477.562 271.449C477.853 272.145 478.279 272.776 478.816 273.306C479.353 273.836 479.989 274.254 480.689 274.535C481.389 274.817 482.137 274.957 482.892 274.947H625.662C626.414 274.966 627.162 274.836 627.863 274.564C628.565 274.293 629.205 273.885 629.748 273.364C630.291 272.843 630.726 272.22 631.026 271.531C631.327 270.842 631.488 270.099 631.501 269.347C631.513 268.595 631.376 267.848 631.098 267.149C630.82 266.45 630.407 265.813 629.881 265.275C629.356 264.737 628.729 264.308 628.037 264.014C627.344 263.719 626.601 263.564 625.849 263.559C625.787 263.559 625.724 263.559 625.662 263.559L482.892 263.558Z" fill="#CACACA"/>
<path d="M482.892 292.308C482.137 292.298 481.389 292.438 480.689 292.719C479.989 293.001 479.353 293.419 478.816 293.949C478.279 294.479 477.853 295.11 477.562 295.806C477.271 296.501 477.121 297.248 477.121 298.002C477.121 298.757 477.271 299.503 477.562 300.199C477.853 300.895 478.279 301.526 478.816 302.056C479.353 302.586 479.989 303.004 480.689 303.285C481.389 303.567 482.137 303.707 482.892 303.697H625.662C626.414 303.716 627.162 303.586 627.863 303.314C628.565 303.043 629.205 302.635 629.748 302.114C630.291 301.593 630.726 300.97 631.026 300.281C631.327 299.592 631.488 298.849 631.501 298.097C631.513 297.345 631.376 296.598 631.098 295.899C630.82 295.2 630.407 294.563 629.881 294.025C629.356 293.487 628.729 293.058 628.037 292.764C627.344 292.469 626.601 292.314 625.849 292.309C625.787 292.309 625.724 292.309 625.662 292.309L482.892 292.308Z" fill="#CACACA"/>
<path d="M482.892 321.058C482.137 321.048 481.389 321.188 480.689 321.469C479.989 321.751 479.353 322.169 478.816 322.699C478.279 323.229 477.853 323.86 477.562 324.556C477.271 325.251 477.121 325.998 477.121 326.752C477.121 327.507 477.271 328.253 477.562 328.949C477.853 329.645 478.279 330.276 478.816 330.806C479.353 331.336 479.989 331.754 480.689 332.035C481.389 332.317 482.137 332.457 482.892 332.447H625.662C626.414 332.466 627.162 332.336 627.863 332.064C628.565 331.793 629.205 331.385 629.748 330.864C630.291 330.343 630.726 329.72 631.026 329.031C631.327 328.342 631.488 327.599 631.501 326.847C631.513 326.095 631.376 325.348 631.098 324.649C630.82 323.95 630.407 323.313 629.881 322.775C629.356 322.237 628.729 321.808 628.037 321.514C627.344 321.219 626.601 321.064 625.849 321.059C625.787 321.059 625.724 321.059 625.662 321.059L482.892 321.058Z" fill="#CACACA"/>
<path d="M482.892 349.808C482.137 349.798 481.389 349.938 480.689 350.219C479.989 350.501 479.353 350.919 478.816 351.449C478.279 351.979 477.853 352.61 477.562 353.306C477.271 354.001 477.121 354.748 477.121 355.502C477.121 356.257 477.271 357.003 477.562 357.699C477.853 358.395 478.279 359.026 478.816 359.556C479.353 360.086 479.989 360.504 480.689 360.785C481.389 361.067 482.137 361.207 482.892 361.197H625.662C626.414 361.216 627.162 361.086 627.863 360.814C628.565 360.543 629.205 360.135 629.748 359.614C630.291 359.093 630.726 358.47 631.026 357.781C631.327 357.092 631.488 356.349 631.501 355.597C631.513 354.845 631.376 354.098 631.098 353.399C630.82 352.7 630.407 352.063 629.881 351.525C629.356 350.987 628.729 350.558 628.037 350.264C627.344 349.969 626.601 349.814 625.849 349.809C625.787 349.809 625.724 349.809 625.662 349.809L482.892 349.808Z" fill="#4671FB"/>
<path d="M431.197 287.755L411.979 276.66V298.85L431.197 287.75L411.979 276.66V298.85L431.197 287.755Z" fill="#F2F2F2"/>
</g>
<defs>
<clipPath id="clip0_2068_148">
<rect width="799.468" height="552.327" fill="white"/>
</clipPath>
</defs>
</svg>
